<svg version="1.2" xmlns="http://www.w3.org/2000/svg" viewBox="0 0 90 90" width="90" height="90">
	<title>Nytt projekt</title>
	<style>
		.s0 { fill: #000000 } 
		.s1 { fill: #ffffff } 
	</style>
	<path id="Background" class="s0" d="m45 89c-24.3 0-44-19.7-44-44 0-24.3 19.7-44 44-44 24.3 0 44 19.7 44 44 0 24.3-19.7 44-44 44z"/>
	<path id="E" class="s1" aria-label="E"  d="m64.1 17q0 0.2-0.2 0.2 0-0.1-0.2 0 0.1-0.2 0.4-0.2zm-48.8 1.5h0.4q-0.1 0.2-0.2 0.3-0.1 0-0.3 0 0.1 0 0.1-0.3zm37.2 14.4q0.1 0.1 0.1 0.1 0 0.1 0 0.2-0.1 0.1-0.2 0.3 0 0.1 0.1 0.2-0.2-0.3-0.1-0.4 0.2-0.2 0.1-0.4zm-0.2 1.9q0.1 0.1 0.1 0.3-0.1 0.1-0.1 0.2-0.2-0.3 0-0.5zm-26.9 0.5q0.1 0.1 0.2 0.3 0 0.3-0.2 0.3 0.1-0.2 0-0.3-0.1-0.2 0-0.3zm0.2 2q0 0 0 0.2-0.1 0.3-0.2 0.3-0.1 0 0-0.3 0-0.2 0.2-0.2zm0 1q0 0.3 0 1.1 0 0.7 0.1 1.3-0.2-0.7-0.3-1.3 0-0.7 0.2-1.1zm34.1 1.6q0.2 0 0.1 0.2 0 0.2 0 0.4-0.2 0-0.2-0.3 0.1-0.3 0.1-0.3zm0 1.7v-1.1q0.1 0.2 0.1 0.7 0 0.4-0.1 0.4zm-34.1-0.6q0 0.5 0 1 0.1 0.5 0.1 0.9-0.2-0.4-0.2-0.9 0.1-0.4 0.1-1zm0 2.4q0.1 0 0.1 0.2 0 0.1 0 0.3-0.1 0-0.1-0.2 0-0.2 0-0.3zm0.1 3.5v-0.5q0.1 0.1 0.1 0.3 0 0.2-0.1 0.2zm16.2 2.1q0.2 0 0.2 0.3 0 0.3 0.1 0.4-0.2-0.1-0.2-0.3 0-0.3-0.1-0.4zm11.2 0.5q0.2 0 0.2 0.5 0 0.4 0 0.6-0.1-0.3-0.1-0.6 0-0.4-0.1-0.5zm-27.2 2.1q0.2 0.3 0 0.6 0 0 0-0.2 0-0.2 0-0.4zm0.2 2.8q0.1 0.4 0.1 0.8 0.2 0.4 0.2 1-0.2-0.4-0.2-0.8-0.1-0.5-0.1-1zm0.3 2q0 0.3 0 0.5 0.1 0.1 0.1 0.6-0.1-0.4-0.2-0.6-0.1-0.3 0.1-0.5zm25.8 12.8q-0.3 0-0.6 0.1-0.3 0.1-0.6-0.1 0.2 0 0.6-0.1 0.5-0.1 0.6 0.1zm0.4-0.2q0 0.3-0.3 0.3 0-0.2 0.1-0.2 0.1-0.1 0.2-0.1zm-36 2q-0.2 0.2-0.4 0.3-0.2 0-0.5 0 0.1-0.2 0.4-0.2 0.3-0.1 0.5-0.1zm-1.1 0.3q-0.3 0.2-0.7 0.5-0.4 0.2-0.9-0.1 0.3-0.3 0.7-0.3 0.4 0 0.9-0.1zm39.9-49.2q-0.1 0.1 0.1 0.1 0.3 0 0.2 0.2-1.5-0.1-2.8-0.1-1.3 0-2.6 0-1.4 0-2.8 0.1-1.4 0-3 0 0.5-0.2 1-0.3 0.6 0 1.1 0 0.6 0.1 1.2 0.1 0.5 0 1.1-0.1-0.1-0.1-0.3-0.1-0.2 0-0.5 0.1-0.1 0-0.3 0-0.2-0.1-0.3-0.3 0 0 0 0.2 0 0-0.1 0.1-0.4-0.1-0.7-0.2-0.2-0.1-0.5 0.1 0-0.1 0.1-0.1 0.1 0.1 0.1-0.1-0.5 0-1.1 0-0.6 0-1.3 0-0.7 0-1.3 0-0.7 0-1.1 0v0.6q0.8 0 1.4-0.1 0.7-0.2 1.3 0 0 0.3-0.3 0.2-0.3-0.1-0.5-0.1-0.4 0-0.9 0.1-0.4 0.1-1 0 0 0.5 0.2 0.8 0.1 0.3 0.1 0.8-0.2 0-0.2-0.2-0.1-0.3-0.3-0.5-0.2 0.2-0.2 0.5 0 0.2 0 0.5 0 0.3 0 0.6 0.1 0.3 0.1 0.6v-0.1q0 0 0.1 0 0 1.6-0.1 3-0.1 1.5-0.2 3.4 0.1 0.1 0.1 0.6 0.1 0.4 0.2 1 0.1 0.5 0.1 1 0.1 0.6 0.1 0.9 0 0.8 0.1 1.6 0.1 0.8 0 1.4-0.2-0.9-0.3-2-0.1-1.1-0.3-2.4-0.2 2 0.1 3.9 0.3 1.9 0.5 3.9 0.2-0.8 0-1.6-0.1-1 0-1.9 0.2 0.8 0.2 1.6 0.1 0.9 0.2 1.8 1.1 0.1 2.3 0.3 1.2 0 2.3 0 1.2 0 2.2-0.2 1.1-0.3 2.1-0.8 0.3-0.6 0.6-1.1 0.4-0.5 0.7-1 0.3-0.5 0.5-1.1 0.2-0.6 0.1-1.4 0.2 0.2 0.1 0.5 0 0.3 0 0.6 0.3-0.3 0.5-0.8 0.1-0.5 0.4-0.6 0.1-0.4 0.3-0.9 0.3-0.4 0.5-0.9 0.2-0.5 0.4-1 0.2-0.5 0-1.1 0.4 0 0.5-0.5 0-0.4 0.2-0.8 0.6 0.2 0.8 0.7 0 0.2 0 0.3 0 0.1-0.1 0.3 0.5 0.2 1 0.2 0.6 0 1.2 0.1 0.1-0.2 0.1-0.6 0-0.4 0.1-0.7 0.5 0 0.5 0.4 0 0.5-0.1 0.9 0.1 0.1 0.2 0.1 0.2-0.1 0.3 0.1 0.1-0.5 0.1-0.7 0.1-0.3 0.2-0.6 0.5 0.2 0.5 1.1 0 0.2 0.3 0.2 0.2-0.1 0.2 0.2h-0.1q0.1 0.2-0.1 0.2-0.2-0.1-0.3-0.1 0 1.6 0 3.4 0 1.8-0.1 3.7 0 1.9-0.1 3.7 0 1.8-0.1 3.5 0 0.1 0.1 0.1 0.2 0 0.1 0.2-0.1 0.9-0.2 2 0 1.2 0 2.1 0 0.6 0 1.2 0.1 0.5-0.2 0.8-0.2 0-0.3-0.1 0-0.2 0-0.4 0-0.3 0.1-0.3 0.1 0.1 0.2-0.1 0.1-1.6 0.1-3 0.1-1.5 0-2.9 0-1.5 0-3-0.1-1.4 0-3 0.1-1.8 0.2-3.6 0-1.7-0.1-3.3 0-0.2 0-0.4 0.1-0.2-0.2-0.4-0.3 1.5-0.3 3.1 0 1.6 0 3.3-0.2-0.1-0.2-0.4 0.1-0.4 0.2-0.6-0.2 0.2-0.3 0.4 0 0.2 0 0.6 0 0.3 0 0.6 0 0.3 0 0.6 0.3 0.4 0 0.8 0 0.1 0.1 0 0.1 0 0.1 0.1v0.7q0.1 0.2 0 0.3 0 0.2 0.1 0.5-0.2 0-0.2-0.2 0-0.2-0.1-0.4 0 0.2 0 0.4 0 0.1-0.1 0.4 0.1 0.1 0.1 0.1 0-0.1 0-0.1 0-0.1 0-0.2 0.1-0.1 0.2 0 0.1 0.1 0.1 0.4 0 0.3-0.3 0.4 0.1 0.1 0.1 0.2 0.1 0.1 0.1-0.1 0 0.8-0.1 1.8 0 1 0.1 2-0.2 0-0.2-0.1 0-0.1 0-0.1 0.2 0.4 0.1 1 0 0.6 0.1 1.3-0.2-0.2-0.2-0.1 0 0.1 0 0.3 0.1 0.1 0.1 0.4 0.1 0.1 0.1 0.3-0.2 0-0.2-0.1 0-0.2-0.2-0.2 0.1 0.5 0 0.9 0 0.5 0 1 0 0.5 0 1 0 0.4 0.1 0.8 0.1-0.8 0.1-1.6 0-0.7 0-1.5 0.2 0.2 0.1 0.5 0 0.2 0.1 0.5 0 0.1-0.1 0.1 0-0.1-0.1-0.1 0.2 0.3 0.2 0.7 0 0.3 0 0.7 0 0.4 0.1 0.7 0.1 0.3 0.4 0.5-0.2 0.3-0.5 0.5-0.1 0.4-0.1 0.8 0.1 0.4 0.1 0.7 0 0.4 0 0.8 0 0.3-0.2 0.5 0-0.8 0-1.5 0-0.7-0.1-1.3-0.2 0.6-0.1 1.2 0.1 0.6-0.2 1.2-0.1 0-0.2-0.1-0.1-0.1-0.1-0.3 0.1-0.1 0.1-0.3 0.1-0.1 0.1-0.2 0-0.1-0.2-0.4-0.1-0.3-0.3-0.5-0.2-0.4-0.5-0.5-0.2-0.3-0.3-0.2 0 0.3 0.3 0.5 0.3 0.2 0.5 0.5-0.5 0-0.7-0.4-0.2-0.3-0.4-0.6-0.4 0-0.8 0.1-0.3 0.1-0.5-0.2-0.1 0-0.1 0.2 0 0.1-0.2 0.1-0.5-1.5-1.1-3.1-0.6-1.7-1.3-3.3 0 0-0.1 0 0 0 0 0-0.1-0.2-0.2-0.5-0.1-0.3-0.3-0.6-0.1-0.2-0.4-0.4-0.3-0.2-0.7-0.2 0.1-0.3-0.1-0.4-0.1-0.2-0.2-0.3-0.6 0.2-1.4 0.1-0.7-0.1-1.4-0.2-1.6 0-3.3 0.1-1.7 0-3.1 0-0.1 0.3-0.1 0.8 0 0.4 0.1 0.7-0.3-0.3-0.2-0.7 0-0.3-0.1-0.8-0.2 0-0.2 0.2 0 0.2 0 0.5-0.2 0.6-0.1 1.5 0.1 0.8 0.1 1.6 0 1.6 0 3.4 0 1.7 0.1 3.5 0 1.9 0.1 3.7 0.1 1.8 0.5 3.5-0.2 0.2-0.4 0.3-0.1 0-0.2 0.1 0 0.1 0.1 0.1 0.2 0.1 0.2 0.2v0.4q0.3 0.6 0.8 0.9 0.5 0.2 1.1 0.7 0.1-0.1 0.3-0.1 0.3-0.1 0.5-0.1l-0.1 0.1q-0.1 0.1-0.2 0.1 0.3 0.3 0.8 0.3 0.5 0 0.8 0.2 1.5-0.3 3-0.4 1.5-0.2 3-0.3 0.4-0.1 0.8-0.2 0.5-0.1 0.8 0.1 0.6-0.2 1.3-0.2 0.8-0.1 1.6-0.3 0.9-0.1 1.7-0.2 0.9-0.1 1.6-0.2 0.1 0 0.2-0.1 0-0.2 0.1-0.2h0.7q0.4-0.1 0.7-0.4 0.4-0.3 0.6-0.6 0.3-0.4 0.6-0.7 0.3-0.3 0.6-0.6 0-0.2 0.1-0.3 0-0.1 0-0.2 0.8-0.5 1.2-1.2 0.5-0.7 1-1.6-0.5 0.2-0.6 0.6-0.2 0.4-0.5 0.6 0.1-0.4 0.5-0.7 0.3-0.3 0.3-0.7 0.1 0.1 0.1 0 0.1-0.1 0.2-0.2 0-0.2 0-0.3 0.1-0.1 0.2-0.1 0.1 0.1 0 0.3-0.2 0.1-0.2 0.3 0.3 0 0.4-0.2 0.1-0.3 0.2-0.5-0.1-0.2-0.1 0 0 0.2-0.1 0 0.4-0.9 1-1.7 0.5-0.8 0.8-1.8-0.1-0.1-0.4-0.1-0.4 0-0.4-0.3 0.3 0 0.5 0 0.2 0 0.4 0 0.2 0 0.3-0.1 0.1 0 0.2-0.3-0.1-0.2-0.3-0.2-0.2 0-0.4 0-0.2 0-0.3 0-0.2 0-0.2-0.2 0.2-0.4 0.6-0.3 0.5 0 1-0.1 0.2-0.4 0.4-0.6 0.2-0.3 0.5-0.6 0.1-0.1 0.1-0.1 0.1 0 0.1 0 0 0 0.1 0 0.1-0.2 0.1-0.4 0.1-0.2 0.4-0.2 0 0.6-0.3 0.9-0.3 0.4-0.4 0.9 0.3 0.1 0.6 0 0.2-0.1 0.4-0.1 0.2-0.1 0.4-0.1 0.3 0 0.5 0.2 0.1-0.3 0.1-0.7-0.1-0.5 0-0.9 0.3 0 0.4 0.2 0.1 0.1 0.1 0.4 0.1 0.3 0 0.6 0 0.3-0.1 0.5 0.2 0.1 0.4 0.1 0.3 0 0.5 0 0.3 0 0.5 0 0.2 0 0.2 0.2-0.3 0.3-0.7 0.2-0.5-0.2-0.9-0.1 0 3.7 0.3 7.6 0.3 3.8 0.8 7.5 0.1 0.4 0.1 0.9 0 0.4 0 0.9 0 0.2 0 0.6 0.1 0.3-0.2 0.4-0.3-0.1-0.4-0.5 0-0.4 0-0.7 0.1 0 0.1 0.1 0.1 0.1 0.1 0.1 0.1-0.9 0.1-1.8-0.1-0.9-0.3-1.7-0.1-0.9-0.2-1.7-0.2-0.8-0.2-1.7-0.1-2.2-0.3-4.6-0.1-2.4-0.1-4.5 0 1.5-0.2 3.2 0 1.6-0.2 3.4-0.1 1.7-0.2 3.5-0.1 1.8-0.1 3.5 0.1 0.2 0.2 0.3 0.2 0 0.1 0.3 0 0.1-0.3 0.1 0 0.3-0.1 0.5 0 0.2 0 0.4 0.1 0.1 0.4 0.1 0.3 0 0.4 0.2-0.1 0.3-0.3 0.3-0.2 0-0.4 0-0.2-0.1-0.4 0-0.2 0.1-0.3 0.5 0.2 0 0.4-0.1 0.2-0.1 0.4-0.1 0.2-0.1 0.4 0 0.2 0 0.4 0.2 0 0.2-0.4 0.1-0.3 0-0.5 0.2h0.3q-0.2 0.2-0.5 0.2-0.3 0.1-0.6 0.2-0.1 0.2-0.3 0.3-0.1 0.1-0.2 0.2-0.2-0.1-0.2-0.2 0-0.1 0-0.3-2-0.1-3.7-0.1-1.8 0-3.5-0.1-1.6 0-3.2 0-1.7 0-3.4-0.1 0.2-0.3 0.5-0.2 0.4 0.1 0.7 0.1h9.2q1.1-0.1 1.9-0.1 0.9 0 1.7-0.1v-0.4h-4.4q-0.3 0-0.6 0.1-0.3 0-0.5-0.2-1.8 0.1-3.9 0.1-2.2-0.1-4.4-0.1-2.2 0-4.5 0-2.2 0-4.3 0 2.2 0.3 4.2 0.4 2 0.1 4.2 0.3-0.6 0.2-1.3 0.1-0.7-0.1-1.5-0.1-1.6-0.1-3.1-0.2-1.4-0.1-2.8-0.2 0-0.3-0.2-0.3-0.1 0-0.3-0.1 0 0.1 0.1 0.1 0.2 0.1 0.2 0.1-1.5 0-3 0-1.5 0-2.9 0 0 0 0 0.3 0 0.3 0 0.5 3.4-0.2 6.8-0.1 3.5 0.1 6.6 0.4 0.3 0 0.5 0 0.2-0.1 0.5-0.1-0.4 0.3-0.9 0.3-0.6-0.1-1-0.1-3.1-0.3-6.3-0.3-3.2 0-6.2 0.2-0.1 1 0 2 0 0.4 0.1 0.8 0.1 0.4-0.2 0.5-0.2-0.8-0.1-1.7 0-1-0.3-1.6-3.4 0-6.6 0.1-3.2 0.1-6.5 0 0 0.7 0.1 1.2 0.1 0.5 0.1 1.1-0.4-0.1-0.5-0.3-0.2-0.3-0.3-0.6 0-0.3 0-0.6 0-0.4-0.2-0.8-0.4 0-0.9 0-0.5 0-1 0-0.5 0-0.9 0-0.4-0.1-0.7-0.4 0.4-0.2 0.8-0.2 0.4 0 0.9 0 0.1 0.2 0 0.1-0.1-0.1-0.1 0.1 0.4 0.1 0.9 0.2 0.5 0 0.9 0.1 0.1-0.1 0.1-0.2v-0.1q0.2 0 0.2 0.1 0 0.1 0.1 0.2 0.1-0.1 0.1-0.3-0.1-0.3 0.1-0.5-0.3 0-0.4 0.1-0.1 0.1-0.1 0.3 0 0 0-0.1 0-0.2 0-0.3-0.4 0-0.5 0-0.2 0.1-0.4 0.3-0.2-0.1-0.3-0.2-0.1 0-0.2-0.1-1.4 0-2.5 0-1 0-2.3 0.1 0.1 0.2 0.4 0.3 0.3 0 0.4 0.3-0.3 0-0.3 0.1 0 0-0.1 0.1-0.3 0-0.5 0.1-0.1 0-0.2-0.1-0.1-0.1-0.2-0.3-0.1-0.1-0.2-0.3-0.2 0-0.3 0.1-0.1 0.1-0.2 0.3-0.1 0.1-0.2 0.2-0.1 0.2-0.2 0.2-0.2 0-0.2-0.1 0-0.1 0-0.2-0.1 0.1-0.1 0.1 0 0.1 0 0.2 0.1 0.2 0 0.3 0 0-0.1 0.1-0.2-0.1-0.2-0.2 0-0.2 0-0.4 0.1-0.1 0.1-0.3 0-0.2 0-0.3-0.3 0.1-0.6 0.2-0.2 0.2-0.7 0.2 0-0.2-0.2-0.4-0.1-0.2-0.1-0.4 0.6-0.3 1.1-0.3 0-0.2 0.1-0.3 0.1-0.2-0.2-0.1 0.2-0.1 0.5-0.2 0.4 0 0.4 0.1 0.2-0.2 0.1-0.3-0.2-0.1-0.2-0.3 0.1-0.1 0.3 0 0.1 0 0.1-0.1 0-0.3-0.1-0.3-0.1-0.1 0-0.2-0.4-0.1-0.5 0-0.2 0.1-0.6 0.1 0-0.1-0.1-0.1 0.3-0.3 0.6-0.6 0.4-0.2 0.7-0.5-0.1-0.3-0.2-0.5-0.2-0.3-0.2-0.7 0.2 0.1 0.4 0.2 0.2 0.2 0.3 0.5 0.2-0.3 0.2-0.8 0.1-0.4 0.3-0.6 0.3 0.2 0.3 0.4 0 0.3-0.1 0.5 0 0.3-0.1 0.5-0.1 0.3 0.1 0.5 1.7-0.7 3.3-1.3 1.8-0.6 3.6-1.4v-0.1q-0.3-0.1-0.6 0-0.2 0-0.4 0 0 0 0-0.1 0-0.1-0.1-0.2 0.1-0.1 0.3-0.1 0.2 0 0.4 0 0.1-0.2 0.2-0.4 0.2-0.3 0-0.7 0 0.1-0.1 0.4-0.1 0.2-0.4 0.2 0.1-0.6 0.3-1.4 0.2-0.8 0-1.7-0.1 0 0 0.3 0 0.2-0.1 0.1-0.2-0.4-0.3-0.8-0.1-0.5 0.1-0.9 0.3 0 0.4 0.1-0.1-0.3 0-0.3 0.1 0 0.1-0.3-0.1 0-0.1 0.2-0.1-0.2-0.1-0.4 0.1-0.3 0.1-0.5v0.2q0.1-0.2 0.1-0.6 0.1-0.5-0.1-0.8-0.2 0.2-0.1 0.3 0.2 0 0.1 0.3-0.1-0.2-0.2-0.5 0-0.3 0.1-0.6 0.1-0.1 0.1 0 0 0-0.1 0.1 0 0 0 0.1 0.1 0.1 0.2 0 0-1.5 0-3.2 0-1.8-0.3-3.6-0.2 0-0.4 0-0.1 0-0.1 0.2-0.2-0.3-0.5-0.3 0.1-0.3 0.3-0.4 0.2 0 0.7 0.1 0-0.4-0.1-1.1-0.1-0.8-0.1-1.3 0-0.1-0.4-0.1 0.1-0.1 0.2-0.2 0.2-0.1 0.4 0.1-0.2-0.7-0.2-1.3 0-0.6 0-1.2 0.1-0.6 0-1.2 0-0.6-0.1-1 0-0.1 0-0.1 0.1-0.1 0.1-0.2-0.1-0.2-0.2-0.4-0.1-0.2-0.1-0.5 0.2 0 0.2 0.1 0 0 0.1 0 0.1-0.2 0-0.4-0.1-0.3-0.3-0.4 0.3-0.1 0.3-0.3 0.1-0.2 0.1-0.4-0.1-0.3-0.1-0.6 0-0.2 0-0.4 0-0.1-0.2 0-0.2 0-0.2-0.2l-0.1-0.1q0-0.2 0.1-0.2 0.2 0 0.4 0-0.1-1-0.3-2.3-0.2-1.3 0-2.4-0.2-1-0.1-2.2 0-1.1 0-2.4-0.1 0-0.2 0 0-0.1-0.2-0.1 0.3 0 0.3-0.4 0-0.4-0.3-0.5-0.1 0.1-0.1 0.3 0 0.2 0.1 0.4 0 0.1 0 0.3-0.1 0.2-0.3 0.2 0-0.8-0.1-1.7 0-0.9 0-1.7 0.1 0.2 0.1 0.6 0.3-0.7 0.3-1.5 0-0.9 0.2-1.5-0.2-0.3-0.6-0.5-0.4-0.2-0.9-0.4-1.2-0.4-2.6-0.8-1.4-0.4-2.8-0.5-0.2 0.4 0 0.9 0.2 0.5 0 0.8-0.2-0.1-0.3-0.4 0-0.2 0-0.5-0.1-0.3-0.2-0.6 0-0.2-0.3-0.4 0.2-0.3 0-0.4-0.2-0.2 0-0.4 0 0-0.3 0-0.2 0-0.3-0.1 0-0.2 0.1-0.2 0.2-0.1 0.3-0.1 0.2 0 0.4 0 0.1 0.1 0.3 0.1 0.1-0.3 0.1-0.6-0.1-0.3 0-0.8-0.3 0-0.4 0.1-0.2 0-0.2 0.2 0-0.1 0-0.3 0-0.2-0.2-0.2-0.6 0-1.2 0-0.5 0.1-0.8-0.3 0.2-0.3 0.5-0.3 0.4 0 0.7 0 0.3 0 0.7 0 0.3-0.1 0.8-0.1 0-0.1 0-0.2 0-0.1 0-0.2 0-0.2 0-0.3 0.1-0.1 0.2-0.1h-0.4q-0.1 0-0.2 0.1 0 0.1 0 0.2 0 0.1-0.1 0.2 0 0.2-0.1 0.2 0.1-0.2 0-0.3 0-0.2 0-0.4 0-0.2 0-0.3 0.1-0.1 0.3-0.3 0.1 0.2 0 0.2 0 0.1 0 0.3h0.5q0-0.2-0.2-0.2-0.2 0.1-0.2-0.1 0.2-0.1 0.2 0 0 0 0.1 0.1 0.4-0.3 0.3-0.7-0.1-0.5 0.1-0.9 0.2 0.1 0.2 0.4 0.1 0.3 0.2 0.6-0.1 0-0.1-0.1-0.1-0.1-0.2-0.1-0.1 0.3-0.1 0.5 0.1 0.2 0.3 0.4 0.2 0.2 0.4 0.4 0.2 0.2 0.4 0.5-0.3-0.2-0.5-0.4-0.2-0.2-0.3-0.3-0.2 0.2-0.2 0.4 0.2 0.3 0.2 0.4 1.6 0.1 3 0 1.4-0.1 3.2-0.1 0.2-0.6 0.2-1.3-0.1-0.7 0.2-1.3 0.3 0.1 0.4 0.4 0 0.3 0 0.6 0 0.3-0.1 0.7 0 0.4 0.1 0.7 3.6 0.2 7.1 0 3.5-0.2 7-0.1 0.2-0.5 0.1-1.1-0.1-0.6 0.1-1 0.2 0 0.3 0.3 0.1 0.2 0.1 0.5 0 0.3-0.1 0.6 0 0.4 0.1 0.5 1.4 0 2.8 0.1 1.5 0.1 2.9 0.1 2 0 3.9-0.1 1.8-0.1 3.4-0.1 0.3 0 0.6-0.1 0.3-0.1 0.8 0 1 0.2 2.3 0.1 1.4 0 2.5-0.2 0.1 0.1 0.1 0.1 0.1 0 0.4 0 0-0.2-0.2 0-0.1 0.1-0.1-0.1 0.1-0.1 0.3-0.1 0.2 0 0.3 0.2 0.3-0.3 0.7-0.2 0.4 0.2 0.9 0 0.3 0 0.1 0-0.1 0-0.1 0.2 0.3 0 0.3 0 0.1-0.2 0.1-0.2 0.4 0 0.7-0.1 0.3-0.1 0.6-0.1 0.2 0 0.1-0.1-0.2 0-0.1-0.2 0.5 0 0.8 0.1 0.4 0.1 1.1-0.1 0 0-0.1-0.1-0.1-0.2-0.1-0.4 0.1-0.1 0.4-0.2 0.2-0.1 0.4-0.1 0.3-0.1 0.4-0.4 0-0.3 0-0.5 0-0.4 0-0.6 0-0.3 0.2-0.6 0.2 0 0.3 0.2 0.1 0.2 0.1 0.5 0 0.3-0.1 0.6 0 0.2 0.1 0.3 0.1-0.3 0.4-0.5 0.3-0.2 0.6-0.3 0.4 0 0.7 0.2 0.2 0.1 0.3 0.5 0 0.4-0.2 0.6-0.3 0.2-0.6 0.4-0.3 0.1-0.7 0.3-0.4 0.1-0.7 0.3 0.2 0.1 0.5 0.1 0.3 0 0.6 0 0.3-0.1 0.6 0 0.2 0 0.3 0.2 0 0.1-0.2 0.2-0.1 0-0.2 0-0.2-0.1-0.4-0.1-0.1 0-0.2 0.1 0.1 1.6-0.1 3.2-0.2 1.6-0.3 3-0.1 1.1-0.1 2.2 0 1-0.1 2-0.1 0.6-0.1 1.3-0.1 0.6-0.1 1.2 0.5 0.2 0.9 0.1 0.5-0.2 1.2-0.2-0.1 0.2-0.1 0.3 0.1 0.1 0 0.3-0.5 0-0.9 0-0.4 0-0.6 0.3-0.2 0-0.4 0-0.2 0-0.5 0-0.1 0.2-0.1 0.4 0.1 0.1 0.1 0.4-0.3 0.2-0.3-0.2 0-0.4 0-0.6-0.7 0-1.6 0.3-0.8 0.2-1.6 0.2-0.2 0-0.4 0-0.3 0.1-0.3-0.3 0.1-0.1 0.2-0.1 0.2-0.1 0.3-0.1 0.1 0 0.2 0 0.1-0.1 0.1-0.2-0.1-0.7-0.6-1.2-0.5-0.4-1-1-0.3-0.4-0.6-0.9-0.3-0.5-0.6-1-0.3-0.5-0.7-1-0.3-0.5-0.7-0.8-0.2-0.1-0.4 0-0.1 0-0.3 0-0.1-0.3 0-0.3 0.1 0 0.1-0.2-0.5-0.6-0.9-1.2-0.5-0.5-1.2-1-0.2 0.2-0.1 0.5 0 0.2-0.3 0.2 0-0.4-0.1-0.6 0-0.2-0.2-0.3-0.1-0.1-0.3-0.1-0.2-0.1-0.6-0.2zm4.1 16.2q0 0-0.1 0.2-0.1 0.2 0.1 0.3 0.1-0.2 0.2-0.3 0-0.2-0.2-0.2zm-12.2 29.4q0.6 0.1 1 0.1 0.5-0.1 0.9-0.1 0.4-0.1 0.8-0.1 0.5-0.1 1-0.2 1.5 0 3-0.1 1.6-0.2 3-0.4 0.7-0.1 1.4-0.1 0.7-0.1 1.3-0.6-3 0.5-6.2 0.7-3.1 0.3-6.2 0.8zm20.8-52.1q0 0.2-0.1 0.3-0.1 0.2-0.2 0.3-0.2 0.1-0.2 0.3-0.1 0.1 0.1 0.3 0.2-0.1 0.5-0.2 0.3-0.1 0.6-0.2 0.3-0.2 0.4-0.4 0.2-0.2 0.2-0.7-0.4-0.1-0.8 0.1-0.3 0.1-0.5 0.2zm-0.6 8.3q-0.3 0.3-0.1 1-0.1 0.5-0.1 0.9-0.1 0.5 0.1 1-0.1 0.7 0 1.3 0.1 0.6 0.1 1.2 0.2-1.5 0.3-3.1 0.2-1.7 0.3-3.4 0.1-1.2 0.1-2.4 0.1-1.3-0.1-2.3 0 0.6-0.3 1.1 0-0.1 0-0.3 0-0.2 0-0.4 0-0.2 0-0.4 0-0.2-0.1-0.3h-0.2q0.1 1 0.1 1.7 0 0.7-0.1 1.4 0 0.6 0 1.4 0 0.6 0 1.6zm-7.4-5.5q0 0.2 0.1 0.2 0.2-0.1 0.3-0.1 0-0.3-0.4-0.1zm1 0q-0.2 0.1-0.3 0.1-0.1-0.1-0.2-0.1 0.1 0.1 0.3 0.1 0.2 0.1 0.2-0.1zm0.6 0q0.2 0 0.4 0 0.3 0 0.4 0.1 0-0.1-0.2-0.1-0.1-0.1-0.3-0.1-0.1 0-0.3 0.1-0.1 0 0 0zm-30.4 0.1q-0.6 0-0.6 0.1 0 0 0.3 0 0.3 0 0.7 0 0.4 0 0.5-0.1-0.4 0-0.6 0-0.1-0.1-0.3 0zm-0.7 0q-0.3 0-0.5 0-0.1 0-0.1 0.1 0.1 0 0.2 0 0.2 0 0.4-0.1zm21.1 0.3q0-0.2-0.3-0.2-0.2 0-0.2 0 0.1 0.2 0.5 0.2zm2.7 0q2.7 0.1 5.5 0.2 2.9 0.2 5.8 0.2 0.2 0 0.4 0 0.3 0 0.4-0.3-3-0.1-6.2-0.2-3.1-0.1-5.9 0.1zm5.1 0.4h-2.2q-3.4-0.2-6.9-0.2-3.5 0-6.9-0.1h-0.1q0 0.2-0.1 0.2 0 0 0 0 3.3 0 6.2 0.1 2.9 0.1 5.6 0.3 2.8 0.1 5.6 0.2 2.8 0.1 5.9 0-1.7-0.3-3.6-0.3-1.9 0-3.5-0.2zm-25.7 0h1.1q0.3 0 0.7 0 0.4-0.1 0.4-0.1-0.2 0-0.5 0-0.3 0-0.7 0-0.3 0-0.6 0.1-0.3 0-0.4 0zm-13.3 0.1q0.4 0 0.7 0 0.3 0 0.5-0.1-0.3 0-0.8 0-0.3 0-0.4 0.1zm20.4 0.9q3-0.1 6.2 0 3.2 0.1 6.4 0.3 3.1 0.1 6.1 0.2 3 0.1 5.7 0 0.3 0 0.7 0 0.5 0 0.6-0.5-1.3-0.1-2.6-0.1-1.2 0.1-2.5 0-1.3 0-2.5 0-1.2-0.2-2.4-0.2-3.9-0.3-7.7-0.4-3.8-0.1-7.9-0.1-0.1 0-0.1 0.1 0 0.1 0 0.2 0 0.2 0 0.4 0 0.1 0 0.1zm-12.3-0.2q-0.4 0-0.9 0-0.4 0.1-0.7 0.2h13.2q-0.1-0.1-0.1-0.3 0-0.2 0-0.5-1.3 0.1-2.7 0.1-1.3 0-2.8 0.1-1.5 0-3 0.1-1.5 0.1-3 0.3zm-0.4-0.4q0.5 0 0.4-0.1 0 0-0.2 0-0.3 0-0.6 0-0.3 0.1-0.4 0.1 0.4 0.1 0.5 0 0.1 0 0.3 0zm-1.3 0.1q0.1-0.1 0.2 0 0.2 0.1 0.3-0.1-0.1-0.1-0.3 0-0.2 0-0.2 0.1zm-1.3 0.2q0 0 0-0.1 0-0.1 0-0.1-1.6 0.2-3.1 0.1-1.5-0.1-2.8 0.2 1.3 0 2.8 0 1.6-0.1 3.1-0.1zm0.6 0.5h0.3q0-0.3-0.1-0.3 0 0.1-0.2 0.1-0.1 0 0 0.2zm-6.4 0q1.3 0.2 2.9 0.1 1.7-0.1 3-0.3-1.4 0-3 0.1-1.5 0.1-2.9 0.1zm28.8 0.3q-0.8-0.2-1.6-0.1-0.8 0.1-1.6 0.1-0.9-0.2-1.9-0.1-1.1 0-1.9 0.2 0.1 0.2 0.6 0.2 0.4-0.1 0.7-0.1 1.4 0.1 3 0.1 1.6 0 3.2 0 1.6 0 3 0 1.4-0.1 2.5-0.1-1.4-0.2-2.9-0.2-1.5 0-3.1 0zm-21.7 0.1q0.4 0.3 0.8 0.2 0.5-0.1 0.9-0.1 0.5 0 0.9 0.1 0.4 0 0.9 0 0.9 0 1.9-0.1 1-0.1 1.9 0 1.2 0.1 2.4 0.2 1.2 0.1 2.3-0.1 0.3 0 0.7 0 0.4 0.1 0.6-0.2-3.3-0.2-6.6-0.1-3.2 0-6.7 0.1zm14-0.1q0 0.2 0 0.2 0 0 0.2 0 0-0.1 0.1-0.1 0-0.1-0.1-0.1 0-0.2-0.1-0.1 0 0.1-0.1 0.1zm-14.4 0.1h-0.3q-0.1 0.2 0.2 0.2 0.2 0 0.1-0.2zm-2 0.1q0.3 0 0.6 0.1 0.4 0 0.6-0.2-0.3 0-0.6 0-0.3 0-0.6 0.1zm30.5-0.1v0.2q1.9 0.2 4 0.3 2 0 4.1 0.2 0.8 0 1.8-0.1 0.9 0 1.7-0.2-1-0.3-2-0.2-1 0.2-2 0.2-2-0.1-3.9-0.2-1.9-0.1-3.7-0.2zm-33.3 0.1h-1.9q0.1 0.2 0.4 0.2 0.3 0.1 0.5 0 0.3 0 0.6-0.1 0.3 0 0.4-0.1zm4.8 0.9v-0.5h-0.1q-0.2 0.1-0.2 0.4 0 0.3 0.3 0.1zm10.3-0.1q-0.2 0-0.4-0.1-0.1-0.1-0.3 0 0.1 0 0.1 0.1-1.2-0.2-2.3-0.3-1.2-0.1-2.3 0-1.2 0-2.4 0-1.2 0-2.5-0.1 0 0.1 0.1 0.2 0.1 0 0.1 0.2 1.2 0.1 2.8 0.1 1.6-0.1 2.8-0.1 0.1 0 0.1 0.1 0 0 0.2 0 0.8 0 1.7 0.1 0.8 0.1 1.8-0.1v0.3q0.2 0 0.4-0.1 0.2-0.1 0.4 0.1 0.1-0.2 0-0.3-0.1 0-0.1-0.2 0.1 0 0.2 0.1 0.1 0.1 0.1-0.1-0.2-0.2-0.4 0-0.1 0.1-0.1 0.1zm-15.8-0.1q1.1 0.2 2.5 0.2 1.3 0 2.3 0v-0.5q-1.4 0.1-2.5 0.1-1 0-2.3 0.2zm43.3 0h-2.8q-0.1-0.1-0.1 0.1h0.1q0 0 0 0.1 0.1 0 0.2 0 1.1 0 1.9 0.1 0.8 0.1 1.4 0.1 0.4 0 0.8 0 0.4 0 0.8-0.2-0.4-0.1-1.1-0.2-0.6 0-1.2 0zm-25.6 0.5q0-0.2-0.1-0.2-0.1 0-0.1 0.1v-0.1q0-0.1-0.1-0.1-0.2 0.2 0 0.3 0.1 0 0.3 0zm-5.7-0.1q-1.5 0-2.9 0-1.4 0-2.7-0.2 1.3 0.3 2.8 0.4 1.6 0.1 2.8-0.2zm26.3 0.5q1.5 0.2 3.2 0.3 1.7 0 3 0 0.4 0 0.7 0 0.4 0 0.4-0.3-0.3-0.2-0.7-0.1-0.5 0-0.9 0-1.9-0.1-3.6-0.2-1.7-0.2-3.7-0.4 0.2 0.6 0.5 0.6 0.5 0 1.1 0.1zm-36.1-0.2q0.3 0 0.4 0.2 0.2 0 0.4 0 0-0.1-0.1-0.2-0.1 0-0.2-0.1-0.2-0.1-0.4-0.1-0.1 0-0.1 0.2zm13.8 0.2q-0.3 0-0.5 0-0.2-0.1-0.3-0.1-0.6 0.1-1.4 0.1-0.9 0-1.8 0-0.9 0-1.9 0-0.9 0-1.7 0.1 1.8 0.2 3.9 0.3 2.1 0 4.3-0.1 0.2 0 0.4 0 0.4 0.1 0.6 0.1 0.3 0 0.5-0.1 0.2-0.1 0.3-0.3-0.4-0.3-1.2-0.2-0.7 0.1-1.2 0.2zm-11.2-0.1q-0.2 0-0.5-0.1-0.3 0-0.4 0.1 0.2 0.1 0.5 0.1 0.4 0.1 0.4-0.1zm0.3 0.1q0.3 0 0.4-0.1-0.1 0-0.3 0-0.1-0.1-0.1 0.1zm14.9 4.1q-0.1-0.6-0.1-1 0.1-0.5 0.1-0.9 0-0.5 0-1 0-0.4-0.1-1.1 0 0.8-0.1 1.9-0.1 1.1 0.2 2.1zm-7.3-3.4q-1.9 0-3.5-0.2-1.5-0.2-2.9-0.1v0.7q2.1 0.2 4.1 0.1 2 0 3.9 0.2 0.3-0.2 0.8-0.1 0.6 0 1.2 0 0.6 0.1 1.2 0 0.6 0 1-0.2 0 0 0-0.1 0-0.1 0-0.2-1.5-0.3-2.9-0.2-1.3 0.1-2.9 0.1zm-7.6-0.1q0.1 0.3 0.4 0.3v-0.5q-0.1 0-0.3-0.1 0 0.1-0.1 0.3zm35.3 0.3q0.9 0 2 0.1 1.1 0.1 2-0.1 0.3 0 0.6 0.2 0.4 0 0.7-0.3-1.7-0.3-3.8-0.3-2.1 0-3.9-0.1 0.1 0.3 0.4 0.4 0.3 0.1 0.6 0.1 0.3 0.1 0.7 0.1 0.4-0.1 0.7-0.1zm-1.3 0.5q0-0.2-0.1-0.2-0.1 0-0.1 0.2v0.1q0.9 0 2.2 0.2 1.3 0.2 2.5 0.2 0.3 0 0.6 0.1 0.4 0 0.8 0 0.3 0 0.5-0.1 0.3-0.2 0.2-0.4-1.8-0.2-3.5-0.2-1.6 0.1-3.1 0.1zm-21.2 0.2q-3.3-0.1-6.2-0.1-3 0.1-5.3 0-0.1 0-0.1 0 0 0.1 0.1 0.1 1 0.2 1.9 0.1 1 0 2 0 0.9 0.1 1.8 0.2 0.9 0 1.7 0.1 0.9 0 1.8 0.1 0.9 0 1.9-0.1 0.1 0 0.2 0 0.2 0.1 0.3 0.1 0.2 0 0.3-0.1 0.2-0.1 0.2-0.3 0-0.2-0.2-0.1-0.2 0-0.4 0zm21.7 0.4q0-0.3-0.3-0.3 0 0.2 0.1 0.3 0 0 0.2 0zm-22.1 0.4q-2.7-0.1-5.4-0.2-2.7-0.2-5.4-0.2v0.2q0 0.1-0.2 0.1 2.6 0.3 5.3 0.4 2.7 0.1 5.1 0.1 0.6 0 1.1 0 0.5-0.1 0.5-0.3-0.2-0.2-0.5-0.1-0.3 0-0.5 0zm25.8-0.1q-0.1 0-0.1 0.1-0.5 0.1-1.4 0-0.9-0.1-1.5 0.1 0.8 0 1.8 0.2 1.1 0 2.3 0.1 0.3 0 0.7 0 0.4 0 0.6-0.3-0.7-0.2-1.2-0.2-0.4 0-1.2 0zm-38.4 2q0 0.2 0 0.4-0.1 0.3-0.1 0.5 0 0.2 0 0.5 0.1 0.2 0.3 0.3 0.1-0.8 0-1.9-0.1-1-0.3-1.8-0.3 0.5-0.1 1 0.2 0.5 0.2 1zm1.5-0.8q2.7 0.1 5.5 0.1 2.9 0.1 5.6 0 0.2-0.1 0.5 0 0.5 0 0.5-0.3 0.1-0.3-0.2-0.2-0.4 0-0.6 0-3 0-5.9-0.1-2.9-0.2-5.3-0.2-0.3 0-0.1 0.7zm37.5-0.5q-0.2 0-0.5 0-0.3-0.1-0.3 0.1 0.1-0.1 0.2 0 0.1 0 0.2 0 0.1 0 0.2 0 0.1 0 0.2-0.1zm-2.6 0.9q0.5-0.1 1 0 0.6 0 1.2 0.1 0.6 0 1.1 0 0.6 0 1-0.1-0.1-0.4-0.7-0.4-0.7 0-1.3 0-0.7-0.1-1.5-0.2-0.8-0.1-1.3-0.1 0.1 0.2 0.2 0.4 0.2 0.2 0.3 0.3zm-33.8-0.1q-0.1 0-0.3 0-0.1-0.1-0.3 0-0.2 0-0.3 0.1-0.2 0-0.2 0.2 0.4 0.2 1.2 0.2 0.8 0 1.5 0 2.3 0.2 4.7 0.4 2.5 0.2 4.9-0.1 0-0.2-0.1-0.3-0.1-0.1-0.1-0.4-2.6 0.1-5.3 0-2.7-0.1-5.7-0.1zm34.2 1q0.9 0.1 1.9 0.1 0.9 0 1.9 0v-0.5q-1-0.1-2-0.1-0.9 0-2 0 0 0.1 0 0.2 0.2 0.1 0.2 0.3zm-35-0.1q0-0.1-0.2 0-0.1 0-0.1 0.1 0 0.1 0.1 0.1 0 0.1-0.1 0.2 1.2 0 2.3 0.1 1.2 0.2 2.4 0.2 1.6 0 3.1 0 1.6-0.1 3-0.2 0.3 0 0.7 0.1 0.5 0.1 0.8-0.2-2.8-0.1-5.8-0.3-3-0.1-6.2-0.1zm37.3 0.7q-0.5 0-1-0.1-0.4-0.1-0.9-0.1v0.2q0.2 0.1 0.7 0.3 0.4 0.1 0.8 0.1 0.5 0 1 0 0.5-0.1 0.9-0.2-0.2-0.2-0.3-0.2-0.2-0.1-0.4-0.1-0.2 0-0.4 0-0.2 0.1-0.4 0.1zm-32.1 0.2q-0.9 0-2.2 0-1.2-0.1-2.5 0-0.1 0-0.4 0-0.2 0-0.1 0.3 1.1 0.1 2.1 0.2 1.1 0.1 2.1 0.2 1 0 2.1 0 1.1 0 2.3 0 1 0 1.9 0 0.8 0 1.3-0.3 0 0 0-0.1 0-0.1 0-0.2-1.8-0.2-3.5-0.1-1.6 0-3.1 0zm-7.6 0.4q0.1 0 0.1 0.1v0.1q0.1-0.2 0.2-0.2 0 0 0.1 0.2 0.1-0.2 0-0.2-0.1-0.1 0-0.3h-0.1q-0.1 0-0.1 0-0.1-0.1-0.1-0.1 0 0.2-0.1 0.3 0 0 0 0.1zm15.6 0.8q-0.1-0.2 0-0.5 0-0.4-0.1-0.4 0 0.2 0 0.5 0 0.3 0.1 0.4zm22.6-0.8q0 0.1 0.1 0.5 0.2 0.3 0.6 0.2-0.1-0.2-0.3-0.4-0.2-0.3-0.4-0.3zm3 0.8v-0.6q-0.5 0-1.2-0.1-0.6-0.1-1.2 0.1 0 0.3 0.3 0.4 0.3 0.1 0.7 0.2 0.3 0 0.7 0 0.4 0 0.7 0zm-28.6-0.3q-2.6 0-5.1 0-2.5-0.1-5-0.1v0.4q0.3 0.1 0.6 0.1 0.3-0.1 0.6 0.1 1 0 2.2 0 1.3 0 2.7 0.1 1.4 0 2.8 0 1.5 0 2.8 0 0-0.4-0.2-0.5-0.1-0.1-0.4-0.1-0.2 0-0.5 0-0.3 0-0.5 0zm-12 0.6q0.2-0.1 0.3-0.3 0.1-0.2 0-0.4h-0.3q0 0.1 0 0.4 0 0.2 0 0.3zm38.4 0.5q0.4-0.1 1.1 0 0.6 0 1.1 0 0-0.3-0.3-0.4-0.3-0.1-0.7-0.1-0.4 0-0.8 0-0.4 0-0.6 0 0 0.2 0.1 0.2 0.1 0.1 0.1 0.3zm-36.5-0.4q0 0.2 0 0.4-0.1 0.1 0 0.3 2.1 0 4.4 0.1 2.3 0.1 4.8 0.1 0.7 0 1.4 0.1 0.7 0 1.3-0.3v-0.3q-1.4-0.1-3-0.2-1.6-0.1-3.2-0.1-1.6 0-3.1 0-1.5 0-2.6-0.1zm-1.4 0.1h-0.3q-0.1 0.2-0.1 0.4-0.1 0.2-0.1 0.6 0.1 0.2 0.2 0.4 0.1 0.2 0.3 0.2 0-0.4-0.1-0.8-0.1-0.3 0.1-0.8zm40.1 0.6h-1.9q0 0.3 0.3 0.4 0.2 0.1 0.5 0 0.3 0 0.6-0.1 0.3-0.2 0.5-0.3zm-38.7 0.4v0.6q1.6 0 3.1 0.1 1.4 0.1 2.9 0.1 1.4 0.1 2.9 0.1 1.4 0 3-0.1v-0.4q-1.3-0.1-2.8-0.2-1.4-0.1-3-0.2-1.6 0-3.1 0-1.6 0-3 0zm0 1.1q-0.1 0-0.1 0.1v0.2q1.5 0 3 0.2 1.5 0.1 3 0.2 1.4 0.1 2.8 0.2 1.4 0 2.7-0.1 0-0.1 0.1-0.1 0.2 0 0.3 0 0.1-0.1 0.1-0.1 0.1-0.1 0-0.4-3.1-0.1-6-0.2-2.8 0-5.9 0zm-1.7 1.8h0.4q0.1-0.4 0.1-0.7 0.1-0.3-0.1-0.6 0 0.4-0.1 0.5 0-0.4 0-0.5 0-0.1 0-0.5h-0.5q0.2 0.4 0.2 0.8 0 0.5 0 1zm1.7-0.9q0 0.2 0 0.4-0.1 0.3 0 0.4 1.7 0 3.2 0.1 1.6 0.1 3.1 0.2 1.4 0.1 2.8 0 1.4 0 2.8-0.3v-0.4q-1.6 0-3.1-0.2-1.4-0.1-2.8-0.2-1.4-0.1-2.9-0.1-1.5 0-3.1 0.1zm-0.8 0.8q0-0.3 0-0.4 0.1-0.2-0.1-0.3 0 0.1 0 0.4-0.1 0.3 0.1 0.3zm32.4 0.2q0.1 0 0.1 0 0.1 0 0.2 0-0.1-0.3 0-0.3 0.1 0 0.1-0.2-0.2 0-0.3-0.1 0-0.1-0.2 0 0.2 0.1 0.1 0.3-0.1 0.1 0 0.3zm-2.8-0.3v0.2q0.3 0 0.8 0.1 0.6 0.1 0.8-0.1-0.2-0.2-0.4-0.2-0.2-0.1-0.4-0.1-0.3 0-0.5 0-0.2 0.1-0.3 0.1zm-3.6 5.9q-0.2 0-0.1-0.2 0.2-0.2 0.2 0 0 0 0 0 0 0.1 0 0 0.2-0.2 0.4-0.5 0.2-0.3 0.4-0.4 0.1-1.1 0.6-2.3 0.5-1.1 0.6-2-0.2 0.6-0.6 1.2-0.3 0.5-0.6 1.1-0.3 0.5-0.6 1.2-0.2 0.6-0.3 1.3-0.2 0-0.1-0.3 0.1-0.2 0-0.2-0.3 0.6-0.7 1.1-0.3 0.4-0.5 1.1 0.6 0 0.8-0.4 0.2-0.4 0.5-0.7zm-14.3-5.3q-1.3 0-2.6 0.1-1.3 0-2.7-0.1-1.3-0.1-2.7-0.1-1.5-0.1-2.9 0v0.9q2.4-0.1 4.8 0 2.5 0.1 4.8-0.1h1.3q0.3 0 0.7 0 0.4 0 0.4-0.4-0.2-0.2-0.5-0.3-0.4 0-0.6 0zm-12.5 1q0.1-0.2 0.1-0.3-0.1-0.3 0.1-0.3 0 0.1-0.1 0.3 0 0.1 0.2 0.1 0-0.3-0.1-0.5 0-0.3-0.3-0.3 0 0.2 0 0.5 0 0.3 0.1 0.5zm0.8-0.7q-0.1-0.1 0-0.1 0-0.1 0-0.2-0.2 0-0.1 0.2 0 0.1 0.1 0.1zm32.5 2.9q0-0.7 0.1-1.5 0-0.8-0.2-1.7-0.1 0.9-0.1 1.7-0.1 0.7 0.2 1.5zm-3-2.7q0.5 0 0.9 0.1 0.4 0.1 0.8-0.1v-0.3q-0.2 0-0.5 0-0.2-0.1-0.5-0.1-0.3 0-0.5 0.1-0.2 0-0.2 0.3zm-18.7 0.5q-1.8 0-3.8 0-2 0.1-3.8 0.1-0.6 0-1.3 0-0.6 0-1.1 0.1v0.3q0.6 0.3 1.3 0.3 0.7 0 1.4 0 1 0 2.2 0 1.2 0 2.5 0.1 1.2 0 2.4 0 1.2 0 2.2-0.1v-0.7q-0.5 0-1-0.1-0.4 0-1 0zm18.3 0.5q0.6 0.2 1.1 0.1 0.6 0 1.3 0 0-0.4-0.2-0.5-0.3 0-0.6-0.1-0.4-0.1-0.7-0.1-0.4 0-0.6 0.1-0.3 0.1-0.3 0.5zm-29.7 0.3q-0.2-0.2-0.1-0.4 0-0.2-0.1-0.2 0 0.1 0 0.3 0 0.3 0.2 0.3zm29.5 0.3q0.5 0 1.2 0.1 0.8 0.1 1.4-0.1-0.6 0-1.4-0.1-0.7-0.1-1.2 0.1zm-17.8 0.2q-0.9 0-2.1 0-1.2-0.1-2.6-0.1-1.4-0.1-2.8-0.1-1.4-0.1-2.6-0.1-0.3 0 0 0.3v0.1q2.8 0.1 5.4 0.3 2.6 0.1 5.5 0 0.2 0 0.5 0 0.3 0 0.4-0.3-0.3-0.3-0.8-0.2-0.5 0.1-0.9 0.1zm17.8 0.3q0 0-0.1 0.1 0 0.2-0.1 0.2 0.6 0 1.4 0.1 0.8 0.1 1.4 0.1v-0.4q-0.7-0.1-1.3-0.1-0.6 0-1.3 0zm-17.8 0.5q-2.3-0.1-5-0.1-2.7-0.1-5.3-0.1v0.7q1.5 0 3.1 0.1 1.7 0 3.2 0 1.4 0 2.9 0.1 1.5 0 3-0.2v-0.2q-0.5-0.2-0.9-0.3-0.4 0-1 0zm17.6 0.3q-0.1 0-0.1 0.1 0 0.2-0.1 0.2 0.6 0 1.5 0.2 0.9 0.1 1.5-0.2-0.1-0.2-0.4-0.3-0.3-0.1-0.8-0.1-0.4 0-0.9 0-0.4 0.1-0.7 0.1zm-0.4 0.3q0.1 0.2 0.1 0 0-0.2-0.1-0.2 0 0.1-0.1 0.1 0 0.1 0.1 0.1zm-27.5 1.1q1.9 0.1 4.3 0 2.3-0.1 4.5 0 0.2 0.1 0.7 0.1 0.6 0.1 1.2 0.1 0.5-0.1 1-0.2 0.5-0.1 0.5-0.3 0-0.3-0.3-0.3-0.2 0-0.4 0-1.3-0.2-2.7-0.2-1.4 0-2.9 0-1.4 0.1-2.9 0.1-1.4 0.1-2.8-0.1-0.2 0.2-0.2 0.4-0.1 0.2 0 0.4zm26.8-0.1q0.2 0 0.4 0 0.3 0.1 0.3 0v-0.5q-0.5-0.2-0.5 0.1-0.1 0.2-0.2 0.4zm2.9-0.4q-0.5 0-0.9-0.1-0.4 0-0.9 0h-0.2q0.1 0.1 0.1 0.3-0.1 0.1-0.1 0.2 0.8 0.1 1.6 0.1 0.9 0.1 1.4 0 0-0.2-0.1-0.3-0.1-0.1-0.2-0.1-0.2-0.1-0.3-0.1-0.2 0-0.4 0zm-30.9 0.7q0.1-0.2 0.1-0.4 0.1-0.3-0.1-0.4 0 0.3-0.1 0.5 0 0.1 0.1 0.3zm1.9 0.2q1.2 0.1 2.5 0.3 1.3 0 2.6 0.1 1.4 0 2.6 0.1 1.3 0 2.4-0.1 0.2 0 0.4 0 0.2 0.1 0.3 0.1 0.2 0 0.3-0.1 0.2-0.1 0.2-0.3-2.9-0.2-5.6-0.1-2.6 0-5.7 0zm26-0.1q0 0.2-0.1 0.2-0.2 0.1 0 0.3h0.9v-0.5q-0.2 0-0.5 0-0.1 0.1-0.3 0zm1 0.1q0 0.1 0.1 0.2 0 0.1 0 0.1 0 0.1-0.1 0.1 0.8 0.1 1.7 0.2 0.8 0 1.4 0v-0.5q-0.6-0.2-1.5-0.2-1 0-1.6 0.1zm-14.4 0.6q0-0.2 0-0.3 0-0.2-0.1-0.3 0 0.2 0 0.4 0.1 0.2 0.1 0.2zm-13.1 0.5q1.3 0 2.2 0.1 1 0 1.9 0.2 1.5 0 3.1 0.1 1.7 0.1 3.5 0.1 0.3-0.1 0.7-0.1 0.4 0 0.7-0.1 0-0.2-0.1-0.3 0 0 0-0.2-1.4 0-2.9-0.1-1.5-0.1-3.1-0.2-1.5-0.1-3.1-0.1-1.5-0.1-2.8 0.1-0.2-0.1-0.2-0.2 0-0.1 0.1-0.1 0-0.2 0-0.2 0-0.1-0.2-0.1-0.1 0.2 0 0.5 0.2 0.3 0.2 0.6zm-1.3 0.8q0-0.3 0-0.8 0-0.5-0.1-1 0 0.5-0.1 1-0.1 0.5 0.2 0.8zm27.2-1.1v0.4q0.3 0 0.6 0.1 0.3 0.1 0.8 0.1v-0.6q-0.5 0-0.8 0-0.1-0.1-0.6 0zm1.6 0v0.6q0.6 0 1.1 0.1 0.5 0 0.9 0 0.2 0 0.6-0.1 0.4 0 0.5-0.2-0.8-0.3-1.5-0.3-0.7-0.1-1.6-0.1zm-21.1 1.1q-1.6-0.1-3.2-0.3-1.5-0.2-2.9-0.1-0.1-0.1-0.2-0.1-0.3 0-0.1 0.3 2.6 0.3 5.2 0.5 2.7 0.1 5.4 0.1 0.4 0 0.9 0 0.5 0.1 0.7-0.4-1.2-0.1-2.7 0-1.5 0-3.1 0zm18.6 0.5q0.5 0.2 1 0.1 0.5-0.1 1.1-0.1 0.1-0.1 0.1-0.3 0-0.2 0.1-0.4-0.4 0-0.8-0.1-0.5-0.1-0.8-0.1-0.4 0-0.6 0.2-0.2 0.2-0.1 0.7zm-1.3 0h1.3q-0.1-0.1-0.1-0.4 0-0.3-0.1-0.3-0.2 0.2-0.6 0.3-0.3 0.1-0.5 0.4zm3.7 0q0.9 0 1.6 0.1 0.7 0 1.7-0.1 0-0.1-0.1-0.2-0.1-0.1 0-0.3-0.8 0-1.6-0.1-0.7-0.1-1.5-0.1 0 0.2 0 0.4 0 0.2-0.1 0.3zm-28.8 0.4q0.2-0.1 0.1-0.3 0-0.2-0.1-0.2-0.1 0-0.1 0.2 0.1 0.1 0.1 0.3zm1.2 0q3.1 0.2 6 0.3 2.9 0.1 6 0-0.2-0.3-0.5-0.4-0.3 0-0.6 0-0.2 0-0.3 0-0.1 0-0.3-0.2-0.5 0-1 0.1-0.5 0.1-1 0.1-0.7 0-1.4-0.2-0.7-0.2-1.4 0-0.2 0.2-0.4 0.3-0.3 0-0.6-0.3 0.2 0 0.4 0.1 0.2 0.1 0.3-0.1-1.2-0.2-2.5-0.1-1.3 0-2.5-0.1-0.2 0-0.2 0.2 0 0.2 0 0.3zm23.1 0v0.2q0.2 0 0.5 0 0.3 0.1 0.6 0.1 0.3 0 0.5 0 0.3 0 0.4-0.1-0.2-0.2-0.5-0.2-0.3 0-0.6 0-0.3 0-0.6 0-0.2 0-0.3 0zm4.2-0.1q-0.6 0.2-1.1 0.1-0.4 0-0.9 0.2 0.2 0.1 0.5 0.1 0.3 0 0.6 0 0.3 0 0.6 0 0.3 0 0.5 0-0.1-0.1-0.1-0.3 0-0.1-0.1-0.1zm0.4 0.1q0 0.3-0.1 0.3 0.9 0.2 1.7 0.3 0.8 0.1 1.6-0.1v-0.3q-0.8-0.2-1.6-0.2-0.8-0.1-1.6 0zm-28.8 0.8q0.2 0 0.1-0.2-0.1-0.2-0.2-0.2 0 0.1 0 0.3-0.1 0.1 0.1 0.1zm1.1-0.3q0.2 0.2 0.7 0.2 0.6 0 0.9-0.2-0.4 0-0.8 0-0.4-0.2-0.8 0zm21.2 0.2q0.3 0 0.7 0 0.3 0.1 0.5 0-0.3 0-0.6 0-0.4-0.1-0.6 0zm2.8 0q-0.4 0-0.7 0-0.3-0.1-0.6 0 0.1 0.1 0.4 0.1 0.4 0 0.7 0.1 0.4 0 0.8 0 0.4 0 0.6 0.1-0.1-0.5-0.5-0.4-0.4 0.1-0.7 0.1zm1.3 0v0.3q0.5 0.1 1 0.2 0.6 0 1.2 0v-0.5zm2.4 0.1v0.5q0.3 0 0.8 0.1 0.5 0 0.9 0 0.5 0 0.9 0 0.4 0 0.6-0.2-0.2-0.1-0.6-0.2-0.4 0-0.8-0.1-0.5-0.1-1-0.1-0.5 0-0.8 0zm-16.9 0.4q-1-0.1-2.3-0.1-1.2 0-2.5 0-1.3 0-2.6 0-1.3 0-2.5 0 1.1 0 2.4 0.1 1.3 0.1 2.5 0.2 1.3 0.1 2.6 0.2 1.2 0.1 2.4 0.2 0.6 0 1 0 0.5 0 0.7-0.2-0.3-0.3-0.8-0.3-0.5 0-0.9-0.1zm10.2-0.1q-1.5-0.1-3.2 0-1.6 0-3 0.1-0.2 0-0.4 0-0.3-0.1-0.1 0h0.7q1 0.1 2.5 0.1 1.6 0.1 3 0.2 0.2 0 0.4 0.1 0.3 0 0.5 0 0.3 0 0.5 0 0.2-0.1 0.3-0.3-0.2-0.3-0.6-0.2-0.3 0-0.6 0zm1.5 0.1q0 0.1-0.1 0.2-0.1 0-0.1 0.2 0.8 0 1.4 0.1 0.7 0.1 1.4 0.1 0-0.2 0-0.2-0.1-0.1 0-0.3-0.6 0-1.2 0-0.7-0.1-1.4-0.1zm2.8 0.1v0.5q0.2 0 0.5 0 0.3 0.1 0.6 0.1 0.3 0 0.6 0 0.2 0 0.4-0.1-0.4-0.4-1-0.4-0.6 0-1.1-0.1zm-26.4 1.8q0-0.4 0-0.9 0.2-0.4-0.1-0.9 0 0.6 0 1-0.1 0.4 0.1 0.8zm12.8-1q-1.5-0.2-3-0.2-1.4-0.1-2.9-0.1-1.4-0.1-2.9-0.1-1.5-0.1-3-0.2 0 0.1 0 0.3 0 0.3-0.1 0.5 0.5 0.1 1.1 0.1 0.5-0.1 1.1-0.1 0.5-0.1 1-0.1 0.5 0 0.9 0.2 1.7-0.2 3.7 0 2 0.2 4 0.2 0.1 0 0.4 0 0.4 0 0.4-0.2 0-0.3-0.3-0.3-0.2 0-0.4 0zm1.3-0.6v0.3q0.2 0 0.6 0 0.4 0 0.5-0.2-0.1-0.2-0.6-0.2-0.4 0.1-0.5 0.1zm1.5 0.3q0.5 0 1.1 0 0.7 0 1.3 0.1 2.1 0.1 4.3 0.2 2.1 0.1 3.9 0-1.4-0.1-2.8-0.2-1.3-0.1-2.6-0.1-1.3-0.1-2.6-0.2-1.4 0-2.9 0 0 0.2 0.1 0.2 0.1 0 0.2 0zm13.2 0.1q0.7 0 1.4 0 0.7 0.1 1 0-0.7-0.1-1.3-0.1-0.6-0.1-1.1 0.1zm-3.5 0.8q-1-0.1-2.3-0.1-1.3-0.1-2.6-0.2-1.3-0.1-2.6-0.1-1.3-0.1-2.4-0.2-0.1 0-0.1 0.3 0.3 0.3 0.7 0.3 0.3-0.1 0.7 0h0.3q1.7 0.1 3.5 0.1 1.8 0.1 3.4 0.1 0.6 0 1.2 0.2 0.6 0.2 1.1 0 0-0.3-0.1-0.4-0.1-0.1-0.2-0.1-0.2 0-0.3 0-0.2 0.1-0.3 0.1zm-11.2-0.1q0.4 0 0.7 0 0.3 0 0.5 0.1 0-0.2-0.1-0.3 0-0.1 0-0.3h-1.1q0.1 0.2 0 0.3 0 0 0 0.2zm14.4-0.3q-1.1-0.2-2.1 0 0.1 0 0.4 0.1 0.3 0 0.6 0 0.3 0.1 0.6 0.1 0.3-0.1 0.5-0.2zm0.1 0.1q0.7 0.2 1.7 0.2 1.1 0 1.7-0.2-0.7-0.1-1.7-0.1-1-0.1-1.7 0.1zm-27.7 0.3v0.4q2.7 0 5.2 0.1 2.6 0.2 4.8-0.1 0 0.2 0.3 0.1 0.4-0.1 0.5-0.3-2.4-0.2-5.1-0.1-2.7 0.1-5.6 0zm25.6 0.6q0.6 0 1 0 0.3 0.1 1 0.1v-0.4q-0.5-0.1-1-0.2-0.5-0.1-1.1-0.1 0 0.2 0.1 0.3 0 0.1 0 0.3zm2.3 0.1q0.5-0.1 0.9 0 0.4 0 0.9 0 0.3 0.1 0.7 0.1 0.4 0.1 0.6-0.2-0.6-0.2-1.4-0.3-0.9-0.1-1.7-0.1 0 0.2-0.1 0.3 0 0.1 0.1 0.2zm-15.6-0.3q0.1 0 0.2 0 0.2 0 0.2-0.1-0.1 0.1-0.2 0-0.2-0.1-0.2 0.1zm8 0.2h-0.5q-0.4-0.1-0.4 0 0 0 0.1 0 0.2 0 0.4 0.1 0.2 0 0.4-0.1zm0.9 0.1h0.3q-0.1 0-0.2 0-0.2-0.1-0.1 0zm2 0.1q0.3 0.3 0.7 0.3 0.4-0.1 0.8 0.1 0-0.2-0.2-0.3-0.2-0.2-0.5-0.2-0.3 0-0.5 0-0.2 0.1-0.3 0.1zm-14.6 0.3q-0.2 0-0.5-0.3-0.8-0.1-1.9 0-1.1 0-2.2 0-0.4 0.1-0.8 0.1-0.3-0.1-0.8-0.2-0.3 0-0.6 0.1-0.3 0-0.6 0-0.2 0-0.4 0-0.3-0.1-0.5 0-0.1 0-0.3 0.1-0.1 0.1-0.1 0.5 1.6 0 2.8 0 1.3 0 2.5 0.1 1.2 0 2.5 0 1.3 0 3 0-0.2-0.3-0.4-0.3-0.2-0.1-0.6-0.1-0.2 0-0.5 0-0.3 0.1-0.6 0zm16.3-0.3q0 0.2 0.2 0.4 0.1 0.2 0.3 0.2 0-0.2 0-0.3 0-0.1 0.1-0.3-0.2 0-0.3 0.1-0.1 0-0.3-0.1zm0.7 0.2v0.4q0.6 0 1.1 0.1 0.4 0 0.9-0.1-0.1-0.2 0-0.3-0.5-0.2-0.9-0.2-0.5 0.1-1.1 0.1zm2.3 0q0 0.2-0.1 0.2 0 0.1 0 0.2 0.8 0 1.6 0.1 0.9 0 1.4-0.1-0.7-0.1-1.4-0.3-0.7-0.1-1.5-0.1zm-13.9 0.2q0.1 0 0.1 0.2-0.1 0.1-0.1 0.2h0.4q-0.1-0.1 0-0.2 0-0.1-0.1-0.3-0.3 0-0.3 0.1zm0.5-0.1q-0.1 0.4 0 0.5 0.7-0.1 1.5-0.1 0.9 0 1.7 0 0.8 0 1.6 0 0.8 0 1.4-0.1-1.6-0.1-3.1-0.2-1.5-0.1-3.1-0.1zm-3.8 0.4q0.1 0 0.3 0 0.2 0 0.5 0 0.2 0 0.4 0 0.2-0.1 0.2-0.3-0.4 0-0.8 0.1-0.4 0-0.6 0.2zm2.5 0.3h0.4q0-0.1 0-0.2-0.1-0.1-0.1-0.2-0.2 0-0.2 0.1-0.1 0.2-0.1 0.3zm-14.4-0.2v1.4q0.2-0.2 0.2-0.7 0.1-0.4 0.1-0.7zm12.4 0.2q-1.4 0.2-2.7 0.1-1.2-0.1-2.5-0.1-1.1-0.1-2.3-0.1-1.1 0.1-2.4 0.1-0.2 0-0.7-0.1-0.6 0-0.7 0.2 0.1 0.2 0.2 0.3 0.2 0 0.4 0 0.2 0 0.3 0 0.2 0 0.4 0 1.3 0 2.7 0 1.4 0 2.8 0.1 1.5 0.2 2.9 0.3 1.6 0 2.7-0.3-0.1-0.1-0.2-0.2-0.1-0.1-0.3-0.1-0.1 0-0.3 0-0.1-0.1-0.3-0.2zm14.5 0.4q0.3 0.1 0.8 0.1 0.5 0 1.1 0v-0.5q-0.5 0-1.1 0-0.5-0.1-0.9-0.2 0 0.4 0.1 0.6zm2.1 0.1q0.3-0.1 0.7 0 0.4 0 0.7 0 0.2 0 0.4 0.1 0.3 0 0.6 0 0.2 0 0.4-0.1 0.2-0.1 0.2-0.4-0.8 0-1.5-0.1-0.7 0-1.5 0 0 0 0 0.3 0 0.2 0 0.2zm-14.6 2q0 0.2 0.1 0.3 0.1 0 0.1 0.2-0.1 0.3-0.2 0.7-0.1 0.4-0.1 0.8 0.1 0.5 0.1 1 0 0.5 0 1 0 0 0.1 0 0.1 0.1 0.1 0.3-0.1 0-0.2 0.2 0 0.2 0 0.5 0 0.2 0.1 0.4 0 0.2 0.1 0.3-0.3 0.3-0.2 0.9 0.1 0.5 0.2 1-0.1 1.7-0.1 3.5 0 1.7 0 3.3 0.1 0 0.1 0 0.2 0.1 0.2 0.2-0.2 0.4-0.1 0.6 0.1 0.2 0.6 0.2-0.2-0.4-0.1-0.9 0.1-0.5 0.1-0.9 0-1-0.1-2.1-0.1-1.1-0.1-2.2-0.1-3.1-0.1-5.8 0.1-2.8-0.2-5.8-0.2-0.1-0.3 0 0 0.1-0.1 0 0 0.7 0 1.2 0.1 0.5 0 1.1zm13-1.1q0.3 0.1 0.6 0.1 0.3-0.1 0.8-0.1-0.1-0.2-0.1-0.4 0-0.2 0-0.2h-1.5q-0.1 0.3 0 0.4 0.2 0 0.2 0.2zm5.6-0.4q0 0.1 0-0.1 0-0.2-0.1-0.1 0 0 0 0.2 0 0.1 0.1 0zm-19.8 0.2q-3-0.2-6-0.3-2.9-0.1-6.1-0.1v0.5q2.5 0 4.6 0.2 2.2 0.2 4.4 0.3 0.8 0 1.8 0 0.9 0 1.8-0.2 0-0.2-0.1-0.3-0.1 0-0.2 0-0.1 0-0.2 0-0.1 0 0-0.1zm15.8 0.2q0.5 0.1 0.9 0.1 0.5 0 0.9 0.1 0.1-0.1 0.1-0.4 0-0.4-0.1-0.4-0.3 0-0.7 0-0.3 0-0.6 0-0.3 0-0.5 0.2-0.1 0.1 0 0.4zm1.9 0h1.1v-0.4q-0.3-0.1-0.5-0.1-0.2 0-0.6 0 0.2 0.2 0 0.2-0.2 0.1 0 0.3zm-30.6 1.1q-0.1-0.2 0-0.5 0.1-0.2 0-0.4-0.3 0-0.3 0.1 0 0 0 0.1 0 0.2-0.1 0.3 0 0.1 0.1 0.3 0.1 0.1 0.3 0.1zm7.1-0.5q-1.5-0.1-3.2-0.2-1.6 0-3-0.1-0.2 0.1-0.2 0.4 0.1 0.2 0.1 0.4 1.1 0.1 2.2 0 1.3-0.1 2.6 0 0.7 0 1.6 0.1 0.9 0 1.8 0.1 0.9 0.1 1.7 0.1 0.8 0 1.4 0 0.2 0 0.3 0 0.2 0 0.4 0 0.2 0 0.3-0.1 0.2-0.1 0.2-0.3-1.3-0.3-3-0.3-1.6 0-3.2-0.1zm20.3-0.2q0 0.2 0.2 0.2 0.2 0 0.3 0 0.2 0 0.4 0 0.2 0 0.2-0.2-0.3 0-0.6 0-0.2-0.1-0.5 0zm1.5 0.2q0.4 0 0.9 0.1 0.5 0 0.7-0.1-0.1-0.2-0.3-0.2-0.2 0-0.5 0-0.3 0-0.5 0-0.3 0-0.3 0.2zm2.7 0.1q-0.2-0.2-0.4-0.2-0.2-0.1-0.4-0.1 0 0.1-0.1 0.2-0.1 0-0.1 0.2 0.2-0.1 0.5 0 0.3 0 0.5-0.1zm-3.9 0.4q0 0.1 0.1 0.2 0.1 0 0 0.2 0.3 0 0.3 0 0.1-0.1 0.4 0 0-0.2-0.1-0.3 0 0 0.1-0.2-0.3-0.1-0.5-0.1-0.1 0.1-0.3 0.2zm1.3 0.4q0.7 0.1 1.5 0.2 0.7 0 1.2-0.1 0-0.2-0.1-0.2 0-0.1 0-0.3-0.2 0.1-0.4 0-0.2 0-0.3 0-0.2-0.1-0.3 0-0.1 0.1-0.1 0.3 0-0.3-0.2-0.3-0.3-0.1-0.6-0.1-0.3 0-0.7 0-0.1 0 0 0.2 0 0.2 0 0.3zm-29 1.1v-1.1h-0.2q0 0.3 0 0.7 0 0.3 0.2 0.4zm11.3-0.8q-2.4-0.1-5.2-0.3-2.8-0.1-5.2 0-0.2 0-0.2 0.1 0.1 0.1 0.1 0.2 0.1 0.2 0.5 0.2 0.4 0 0.7 0 1.2 0 2.4 0 1.2-0.1 2.4 0 1.3 0 2.5 0.2 1.3 0.2 2.5 0.1 0.3 0 0.8 0 0.5-0.1 0.6-0.4-0.5-0.3-0.9-0.2-0.5 0.1-1 0.1zm17.9 0.6q0.5-0.1 1.1 0.1 0.7 0.1 1.4 0.1 0-0.4-0.5-0.5-0.4-0.1-0.9-0.2-0.3-0.1-0.6-0.1-0.4 0-0.7 0 0.1 0.2 0.1 0.4-0.1 0.1 0.1 0.2zm-26.2-0.2q-0.1 0.2-0.5 0.3-0.3 0-0.6-0.1-0.3 0-0.6 0-0.3 0-0.4 0.2 3 0 5.9 0.3 3 0.2 6.4 0.3v-0.6q-1 0-2.3-0.1-1.3 0-2.7-0.1-1.4-0.1-2.8-0.2-1.3 0-2.4 0zm25.1 1.4q0.1-0.3 0-0.3-0.2-0.2-0.2-0.3-0.1-0.1-0.2-0.3-0.1-0.2-0.1-0.4 0.2 0.7 0.4 1.6 0.3 0.9 0.6 1.6 0.1-0.7 0-1.1-0.2-0.5-0.5-0.8zm1.1-0.8v0.6q0.6 0 1.2 0.1 0.7 0.2 1.3 0-0.1-0.3-0.4-0.4-0.2-0.1-0.6-0.2-0.4 0-0.8 0-0.4 0-0.7-0.1zm-17.9 0.7q-1.2 0-2.4-0.2-1.2-0.2-2.6-0.2-1.1-0.1-2.2-0.1-1-0.1-2.1 0-0.1 0-0.3 0-0.2 0-0.4 0-0.2 0.1-0.4 0.2-0.1 0.1 0 0.4 1 0 1.9 0.1 1 0.1 2 0.1 0.7 0.1 1.4 0.1 0.7 0 1.5 0 1.4 0.1 2.8 0.2 1.4 0 2.5-0.2-0.3-0.4-0.7-0.4-0.5 0-1 0zm-11.1 0.1q0-0.2-0.1-0.3 0-0.2 0-0.3h-0.1q0 0.1-0.1 0.4 0 0.2 0.3 0.2zm29.1 0.2v0.2q0.6 0.1 1.1 0.2 0.6 0.2 1 0-0.4-0.3-0.9-0.4-0.5 0-1.2 0zm-29.2 1.7v-1.5q0-0.1-0.1-0.1 0 0 0 0.1 0.1 0.4 0 0.7 0 0.3 0.1 0.8zm1.7-1.6q-0.2 0.1-0.4 0.2-0.2 0.1-0.5 0.1 0 0.4 0.1 0.7 0.1 0.3 0.2 0.6 0-0.1 0-0.1 0-0.1 0.2 0 0.1-0.4 0-0.4-0.2 0-0.1 0 0.6-0.3 1.4-0.3 0.8 0 1.4 0 2.3 0 4.5 0.2 2.3 0.2 4.4 0.2v-0.7q-1.6-0.1-3-0.1-1.4-0.1-2.7-0.1-1.3-0.1-2.7-0.1-1.3-0.1-2.8-0.2zm28.2 1.2q0.5 0 0.8 0.1 0.3 0 0.6 0 0.3-0.3 0-0.5-0.3-0.1-0.8-0.1-0.4 0.1-0.9 0 0.1 0.1 0.1 0.3 0.2 0.1 0.2 0.2zm-25.2 0q-0.9 0-1.7 0-0.8-0.1-1.5 0.3 1.6 0 3 0.1 1.5 0.1 2.8 0.2 1.4 0.1 2.8 0.1 1.3 0 2.8-0.2-1.9-0.4-3.9-0.4-2-0.1-4.3-0.1zm24.4 2q0.2 0 0.2-0.1 0.1-0.1 0.1-0.2 0-0.1 0-0.2 0 0 0.2 0-0.1-0.2-0.3-0.3-0.2-0.1-0.2-0.3 0 0 0-0.2 0-0.3-0.2-0.3 0.1 0.4 0.1 0.8 0.1 0.4 0.1 0.8zm1-1.5q0.2 0.2 0.6 0.4 0.3 0.1 0.6 0v-0.4q-0.3 0-0.6-0.1-0.4-0.1-0.6 0.1zm-29 0.7q1.6 0 2.8 0.2 1.2 0.1 2.8 0.1 1.3 0 2.8 0.1 1.6 0.1 2.9 0 0.1 0 0.4-0.1 0.2 0 0.1-0.3-0.5-0.2-1.1-0.2-0.7 0-1.3-0.1-2.2-0.1-4.6-0.2-2.3 0-4.6 0-0.1 0-0.1-0.1-0.1-0.1-0.1-0.1h-0.2q0.1 0.1 0.1 0.3 0.1 0.2 0.1 0.4zm-1.1-0.5v0.4q0 0.1 0 0.1 0-0.1 0-0.3 0-0.2 0-0.3 0-0.1 0 0.1zm1.3 0.9q0-0.1 0-0.1-0.1 0-0.1 0.1-0.1 0-0.1 0.1 0 0.3 0.3 0.3 0.3-0.1 0.5-0.1 1.4 0 2.8 0.1 1.5 0.1 2.9 0.2 1.4 0.1 2.8 0.1 1.3 0 2.5-0.2-1.6-0.2-3-0.3-1.4-0.1-2.8-0.1-1.4-0.1-2.8 0-1.4 0-3-0.1zm-0.1 0.7v0.6q3 0.2 5.9 0.4 2.9 0.1 5.7-0.1v-0.4q-2.9-0.3-6-0.4-3-0.1-5.6-0.1zm30.1 0q0.3 0.2 0.5 0.5 0.1 0.3 0.3 0.5 0-0.5-0.1-0.9-0.2-0.4-0.7-0.1zm11.6 1h1.4q-0.2-0.1-0.1-0.2 0-0.2-0.1-0.3-0.5 0-0.8 0-0.4 0-0.4 0.5zm-0.9-0.1q0.3 0.1 0.3-0.1 0-0.2 0.1-0.3-0.2 0-0.3 0.1 0 0.1-0.1 0.3zm-30.2 0.5q-0.4 0-0.8 0-0.3-0.1-0.8-0.1-2.2-0.2-4.5-0.2-2.3 0-4-0.2-0.1 0-0.3 0.1-0.2 0.1-0.2 0.2v0.2q2.6 0.3 5.4 0.4 2.8 0.1 5.4 0 0.2 0 0.5 0.1 0.3 0.1 0.4-0.2-0.1-0.3-0.5-0.3-0.4 0-0.6 0zm29.8 0.3q0-0.1 0.1-0.1 0.2-0.1 0.2-0.2-0.2-0.1-0.3 0.1-0.1 0.2 0 0.2zm0.9 0q0.4 0.1 0.9 0.1 0.6 0 0.9 0v-0.2q-0.2-0.1-0.5-0.1-0.3-0.2-0.6-0.2-0.3 0-0.5 0.1-0.2 0.1-0.2 0.3zm-39 0.4q-0.4-0.1-0.8-0.2-0.4-0.1-0.8-0.1-0.1 0-0.4 0.2-0.2 0-0.3 0.2 0.1 0.3 0.3 0.2 0.3 0 0.4 0 1 0.1 2.1 0.2 1.2 0.1 2.3 0.1 1.2 0 2.2 0 1 0 1.7-0.1 0.7 0 1.2 0.1 0.6 0 1.2-0.3-2.2-0.3-4.4-0.3-2.2 0-4.7 0zm38.5 0.5q0.5 0 1.1 0.2 0.6 0.1 1.2 0 0-0.2 0-0.3 0-0.1 0-0.3-0.6 0-1 0-0.4 0-1.1-0.1 0 0.2-0.1 0.3-0.1 0-0.1 0.2zm-0.4-0.1q0.2 0.1 0.2-0.1 0.1-0.2 0.2-0.2-0.2-0.1-0.3 0.1 0 0.2-0.1 0.2zm-40.3 0.3q0-0.1 0-0.1-0.1 0-0.1 0.1 0 0.7-0.1 1.2 0 0.5 0.1 1.2 1.4 0 2.8 0.1 1.5 0.1 2.8 0.2 1.4 0.1 2.8 0.2 1.4 0 2.8-0.1 0-0.2-0.1-0.3-0.1-0.1-0.2-0.1-0.2 0-0.4 0-0.1 0-0.2 0-1.4-0.2-2.7-0.3-1.2-0.1-2.4-0.1-1.2-0.1-2.4 0-1.2 0-2.5 0 0.1-0.2 0-0.2-0.2 0-0.3-0.1 0-0.2 0.1-0.2 0.2 0 0.3-0.2-0.3-0.2-0.1-0.4 2.6-0.1 5.6 0 3.1 0 5.7 0.1 0-0.2 0-0.4 0-0.3-0.2-0.4-1.4-0.1-2.8-0.1-1.4 0-2.8 0-1.3 0-2.7 0-1.4 0-3-0.1zm42 0.4q-0.4 0-0.8-0.1-0.4-0.2-0.8-0.2 0 0.2-0.1 0.3-0.2 0-0.2 0.2 0.8 0 1.6 0.1 0.8 0 1.3-0.1-0.2-0.3-0.5-0.2-0.3 0-0.5 0zm-3.3 1q0.2 0 0.3-0.2 0.2-0.2 0.1-0.3 0 0.2-0.2 0.3-0.1 0-0.2 0.2zm1.2-0.4q-0.1 0.1-0.2 0.2-0.1 0.2-0.1 0.4 0.5 0 0.9 0 0.5 0.1 0.9 0.1 0.5 0 0.9-0.1 0.4 0 0.7-0.3-0.8-0.3-1.6-0.3-0.8 0-1.5 0zm-39.5 0.4q1 0.3 2.2 0.3 1.2 0 2.3 0 1.6 0.1 3.2 0.2 1.6 0.1 3 0.1 0-0.2 0.1-0.3 0-0.2 0-0.3-2.7-0.2-5.3-0.3-2.7-0.1-5.5 0.3zm11.1 0.7q0.1-0.2 0.1-0.3 0-0.2 0-0.4h-0.3q0 0.2 0 0.4 0.1 0.2 0.2 0.3zm26.8 0.1q0.2 0.1 0.2-0.2 0.1-0.2-0.1-0.3 0 0.2-0.1 0.3-0.1 0 0 0.2zm0.9-0.2q-0.1 0-0.1 0-0.1 0.1-0.1 0.2 1.1 0.1 2 0.2 1 0 2 0v-0.3q-1 0-1.9-0.1-1-0.1-1.9 0zm-27.7 0.9q0-0.1 0-0.1h0.1q-0.2 0-0.2-0.2 0-0.2-0.2-0.1 0 0.4 0.3 0.4zm29.9 0q-0.5-0.1-1-0.2-0.5-0.1-0.9-0.1-0.5-0.1-0.8 0-0.3 0.1-0.4 0.4 0.7 0.1 1.5 0.3 0.7 0.1 1.4 0.1 0.4 0.1 0.9 0.1 0.6 0 0.9-0.3-0.2-0.4-0.6-0.4-0.5 0.1-1 0.1zm-41.5-0.3q-0.1 0-0.1 0.2 0 0.2 0 0.4 1.2 0 2.6 0.1 1.4 0 2.7 0.2 1.4 0.1 2.8 0.1 1.3 0.1 2.5 0 0.1 0 0.4 0 0.3 0 0.3-0.3-1.5-0.1-2.9-0.2-1.3-0.1-2.7-0.2-1.3-0.1-2.7-0.1-1.4-0.1-2.9-0.2zm37.8 0.4q0.2 0 0.3-0.1 0.2-0.2 0.3-0.3-0.6 0-0.6 0.4zm-32.9 1.1q0.1-0.1 0 0 0 0-0.1 0-0.6 0-1.5-0.1-0.8 0-1.6 0-0.2 0-0.5 0-0.2 0.1-0.5 0.1-0.2 0-0.4 0-0.2-0.1-0.3-0.3 0.1-0.3 0.4-0.2 0.3 0.1 0.5 0.1 2.7 0.1 5.4 0.4 2.7 0.2 5 0-3-0.2-5.7-0.4-2.7-0.2-5.7-0.3v1.1q2.5 0 5.3 0.2 2.9 0.2 5.6 0h0.2q0.2 0 0.3-0.1-2-0.1-3.5-0.2-1.6-0.2-2.9-0.3zm33.2-0.7q-0.1 0.1-0.3 0.4-0.1 0.2 0 0.2 1.7 0.4 3.4 0.4 0.4 0 0.9-0.1 0.6 0 0.8-0.3-1.1-0.1-2.3-0.3-1.2-0.2-2.5-0.3zm-39.2 1.1q0-0.1 0.1-0.4 0-0.3-0.2-0.3 0.1 0.2 0 0.4 0 0.2 0.1 0.3zm39.5-0.1q-0.3 0-0.7 0-0.4 0-0.5 0.3 0.8 0.2 1.7 0.3 0.9 0.1 1.9 0.2 0.2 0 0.5 0 0.3 0.1 0.6 0.1 0.3 0 0.6-0.1 0.3-0.1 0.4-0.3-0.9-0.2-2.2-0.3-1.3-0.2-2.3-0.2zm-38.4 0.5q0 0-0.1 0v0.1q0 0 0.1 0 1.3 0.1 2.7 0.2 1.3 0.1 2.7 0.2 1.4 0 2.7 0 1.4 0 2.7-0.2-2.8-0.2-5.4-0.2-2.5 0-5.4-0.1zm36.7 0.3q-0.2 0-0.3 0.1-0.2 0.1-0.3 0.3-0.1 0.1-0.2 0.3 0 0.1 0.1 0.2 1.5-0.2 3.2 0 1.8 0.1 3.6 0.1v-0.5q-1.5-0.1-2.9-0.4-1.4-0.2-3.2-0.1zm-25.3 0q0 0-0.3 0-0.2 0-0.3 0.1 0.2 0 0.4 0 0.2 0.1 0.2-0.1zm-6.1 0.5q-1.3-0.1-2.7-0.2-1.4-0.2-2.6-0.1-0.2 0-0.2 0.3 0.1 0.2 0.1 0.4 3.2 0.2 5.9 0.3 2.8 0.1 5.6-0.1v-0.5q-1.2-0.3-2.8-0.1-1.5 0.1-3.3 0zm30.3 0.9q1 0 1.9 0.1 1 0.1 1.9 0.3 0.8 0.1 1.6 0.1 0.9 0.1 1.6-0.1v-0.2q-1.7-0.3-3.5-0.5-1.9-0.2-3.5 0.3zm-35.6 0.2q1.5 0.1 2.8 0.1 1.5 0 2.8 0 1.4-0.1 2.9-0.1 1.4 0 3.1 0-1.6-0.1-3-0.1-1.3 0-2.8-0.1-1.3 0-2.8 0-1.4-0.1-3.1-0.1 0 0.2 0 0.2 0.1 0 0.1 0.1zm35.1 0.3q-0.3 0.2-0.6 0.3-0.2 0.1-0.4 0.3 1.8 0.1 3.6 0.3 1.9 0.2 3.3 0.2 0.2 0 0.5 0.1 0.3 0 0.5-0.1 0.2 0 0.4-0.1 0.2-0.2 0.2-0.4-0.9-0.1-1.8-0.2-0.9-0.2-1.9-0.3-1-0.1-1.9-0.2-1 0-1.9 0.1zm-25.1 0q-1.3 0-2.3 0-1 0-2 0-0.9 0-1.9 0-0.9 0.1-1.9 0.2 2.3 0.1 4.9 0.2 2.6 0 4.6-0.1 0-0.2-0.1-0.3-0.2 0-0.4 0-0.2 0-0.5 0-0.2 0-0.4 0zm1.9 0.2v0.3q0.3 0 0.3-0.2 0-0.2-0.3-0.1zm-4.3 0.5q-0.6-0.1-1.3-0.1-0.7-0.1-1.4 0-1.1 0.1-2.3 0.1-1.3 0-2.1 0.1 1.5 0.1 2.8 0.3 1.4 0.1 2.7 0.2 1.4 0.2 2.8 0.2 1.4 0 2.8-0.1v-0.6q-0.6 0.1-1.1 0.1-0.5-0.1-1-0.1-0.5-0.1-0.9-0.1-0.5-0.1-1 0zm4.3 0.7h0.3q0-0.2 0-0.3 0-0.1-0.2-0.3-0.1 0.2-0.1 0.4 0 0.1 0 0.2zm1 0q0.2 0 0.3 0 0.2 0.1 0.3-0.1-0.2 0-0.3-0.1-0.1-0.2-0.3-0.2 0.1 0.1 0 0.2-0.1 0 0 0.2zm28.1 0.1q-0.3 0-0.6 0-0.4-0.1-0.7-0.1-1.5-0.1-3.1-0.2-1.6-0.2-2.9-0.2-0.1 0-0.3 0.2-0.2 0.1-0.2 0.3 1.3 0.1 2.8 0.2 1.5 0.1 3.1 0.2 0.8 0.1 1.7 0.1 0.9 0 1.7-0.4-0.3-0.3-0.7-0.1-0.3 0-0.8 0zm-29.9 0.3q-0.9-0.1-1.8 0-0.8 0-1.3 0.1-0.1-0.2-0.4-0.2-0.3-0.1-0.5-0.1-0.5 0-0.8 0-0.3 0-0.6 0-1.2-0.3-2.7-0.3-1.4 0-3 0 0 0.2-0.2 0.2-0.1 0.1-0.1 0.4 1.7-0.1 3.5 0 1.8 0.1 3.6 0.2h2.8q0.6 0 1.1 0 0.6 0 0.9-0.2 0-0.2-0.2-0.1-0.3 0-0.3 0zm-15.5 0.4q0.3 0 0.7 0 0.3-0.1 0.6-0.1 0.3-0.1 0.5-0.3 0.3-0.2 0.3-0.4-0.3 0.2-1 0.3-0.6 0.2-1.1 0.5zm16.6 0q0.2-0.1 0.1-0.2-0.1-0.2-0.2-0.4-0.2 0.2-0.2 0.4 0 0.3 0.3 0.2zm0.7 0q0.5-0.1 0.9 0 0.4 0.1 0.6-0.1-0.1-0.1-0.4-0.2-0.2-0.1-0.5-0.2-0.3 0-0.5 0.1-0.1 0.1-0.1 0.4zm23.6 0q-0.6 0-1.2-0.1-0.6-0.2-1.2-0.2-0.4-0.1-0.9 0-0.5 0-0.5 0.4 2.2-0.2 4.3 0.1 2.2 0.2 4.3 0.2 0.3 0 0.7 0 0.4 0 0.4-0.2-1.3-0.1-2.8-0.1-1.6 0-3.1-0.1zm-5.3 0q0.3 0.2 0.5 0.1 0.3-0.2 0.4-0.4-0.3 0-0.5 0.1-0.2 0-0.4 0.2zm-20.7 0.2q-0.7 0-1.2-0.2-0.3 0.2-0.8 0.2-0.6-0.1-1.2-0.1-0.4 0.1-1.2 0.1-0.9-0.1-1.6-0.1-0.7-0.1-1.4 0-0.7 0-1.4 0-0.5 0-1 0-0.6 0-1 0.3 1.6-0.2 3.1-0.1 1.6 0.1 3.3 0.2 1.2 0.1 2.2 0.2 1 0 2.2 0 0.2 0 0.6 0 0.4 0 0.5-0.2 0-0.2-0.1-0.3-0.1 0-0.3 0-0.2 0-0.4 0-0.1 0-0.3 0zm-16.1 0.2q0.1 0 0.3 0 0.3 0.1 0.4 0-0.1 0-0.1-0.1 0-0.2-0.2-0.2-0.1 0.1-0.3 0.1-0.1 0.1-0.1 0.2zm3.2 0.1q0.3-0.1 0.7-0.1 0.4 0 0.6-0.2-0.2 0-0.7 0-0.5 0-0.6 0.3zm16.1 0.2q0.6-0.1 1.1-0.2 0.4 0 0.8-0.1-0.2 0-0.5-0.1-0.3-0.1-0.6 0-0.2 0-0.5 0.1-0.2 0.1-0.3 0.3zm-1.6 0q0.2 0 0.2-0.2-0.1-0.1-0.1-0.3h-0.1q0 0.2 0 0.4-0.1 0.1 0 0.1zm10 0.2q0.8 0 1.7 0.1 0.9 0 1.9 0 0.9 0 1.9 0 1 0 1.9 0 0.5 0 1 0 0.4 0 0.9-0.1 0-0.2 0-0.2 0-0.1 0-0.2-2 0-4.5 0.1-2.4 0.1-4.8 0.3zm10.7-0.4q-0.2 0-0.5 0.1-0.3 0-0.3 0.3 2.5 0 4.9 0.3 2.4 0.2 4.6 0.1 0.1 0 0.2 0 0.1 0 0.3 0 0.1 0 0.2-0.1 0.1-0.1 0.2-0.3-2.2-0.2-4.8-0.3-2.5-0.3-4.8-0.1zm-30.3 0.2q-0.7 0-1.4 0.1-0.7 0.1-1.4 0 0 0.2 0 0.3-0.1 0.2 0 0.4 2.6 0 5.2-0.1 2.5-0.1 5.4-0.2 0.4 0 0.8 0 0.5 0 0.6-0.3-2.2 0-4.4 0-2.3-0.2-4.8-0.2zm-7 0.6q-0.4 0.1-0.7 0.2-0.3 0-0.4 0.2 0.4 0 1.1 0 0.6-0.1 1.2-0.1 0.7 0 1.3 0 0.6 0 0.9 0 0.1-0.4 0-0.5-0.1-0.1 0-0.3-0.9 0-1.8 0.1-0.9 0.1-1.6 0.4zm17.4-0.3h1.7q0-0.1-0.2-0.1-0.2 0-0.5 0-0.3 0-0.5 0-0.3 0-0.5 0.1zm2.2 0q0.2 0 0.4 0 0.3 0 0.2-0.1-0.1 0.1-0.3 0-0.3 0-0.3 0.1zm12.8 0.5q-1-0.1-1.9-0.1-0.9 0-1.6 0.1-0.1 0-0.2-0.1l-0.1-0.1q-1.2 0.1-2.6 0.2-1.4 0-2.6 0 0.5 0.1 1 0.2 0.5 0 1 0 0.5-0.1 0.9-0.1 0.5 0 1 0.1-1.2 0.1-2.6 0.1-1.3 0-2.6 0-1.3-0.1-2.5-0.1-1.2 0-2.2 0 0 0.1 0 0.4-0.1 0.2 0 0.3 3.7-0.1 7.1-0.1 3.5-0.1 6.9-0.6-0.5 0.1-1.1 0.1-0.6-0.1-1.1-0.1 0.2-0.1 0.5-0.1 0.5-0.1 0.6 0.1 0.8-0.3 1.7-0.2 0.9 0.2 1.8 0 0.1 0 0.1 0.1 0 0.1 0.2 0.1 3.1-0.1 6.1 0.1 3.1 0.1 6.4-0.1h-0.4q-0.8 0.1-1.6 0-0.9-0.2-1.5 0-1.8-0.3-3.5-0.3-1.6-0.1-3.1 0.1-0.1-0.1-0.3-0.1-0.3-0.1-0.5-0.1-0.2 0-0.3 0.1 0 0 0.3 0.1-0.8-0.2-1.7-0.1-0.8 0.1-1.6 0.1zm-11.9 0q0.6 0.2 1.5 0-0.3-0.1-0.8-0.1-0.5 0-0.7 0.1zm1.5 0.1h1q0-0.3-0.4-0.2-0.4 0-0.6 0.2zm-6.2 0q-0.5-0.1-1.1-0.1-0.6 0.1-1.3 0.1-2.3 0.1-4.7 0.2-2.5 0-4.5 0v0.6q1.6 0 3.3 0 1.7 0 3.3 0.1 1.7 0 3.2 0 1.6 0 2.9-0.1 0.1-0.2 0-0.4 0-0.2-0.2-0.3-0.3 0.1-0.5 0-0.2-0.1-0.4-0.1zm-17.8 0.5q-0.6 0-1.1 0.1-0.5 0.1-0.5 0.4 1.3 0 2.5 0 1.3-0.1 2.5-0.1 0.5 0 0.9 0.1 0.4 0 0.7-0.3v-0.2q-1.2-0.1-2.5-0.1-1.3 0-2.5 0.1zm5.3 0.4q0.1-0.2 0.1-0.3 0-0.1 0-0.2h-0.2q0 0.2-0.1 0.4 0 0.1 0.2 0.1zm40.4-0.2q-1.5-0.1-3.1-0.1-1.6-0.2-3.2-0.2-1.6 0-3.2 0.1-1.6 0.1-3.1 0.3 1.6-0.1 3.3 0 1.7 0.1 3.5 0.2 1.8 0.1 3.6 0.2 1.9 0 3.8-0.2 0.3 0 0.6 0 0.4-0.1 0.7-0.2-0.7-0.3-1.4-0.2-0.7 0.1-1.5 0.1zm-7.6 0.6q-1.1 0-2.4-0.1-1.2 0-2.5-0.1-1.3 0-2.6 0-1.2 0.1-2.3 0.2 2.6 0.2 5 0.2 2.4-0.1 4.8-0.2zm-34.4 0v-0.1q-1 0.1-2.1 0.1-1.2 0.1-2.2 0.2-0.1 0-0.3 0-0.2-0.1-0.4 0-0.2 0-0.3 0.1-0.1 0.1 0 0.2 0.6-0.1 1.3-0.1 0.7 0 1.4 0 0.7 0 1.4 0 0.7-0.1 1.3-0.4-0.1 0-0.1 0zm3.3-0.1q-0.1 0.1-0.3 0.1-0.2-0.1-0.2 0 0.1-0.1 0.3 0 0.2 0 0.2-0.1zm7.5 1.4h-7.3q-0.3 0-0.6 0-0.3 0-0.6 0.2-0.1 0.1-0.1 0.2 0 0.1-0.1 0.3 1.5 0.2 3.1 0.2 1.7-0.1 3.3-0.1 1.7-0.1 3.3-0.1 1.7-0.1 3.4-0.1 0-0.2 0-0.4 0.1-0.3 0-0.4-1 0-2.2 0.1-1.1 0.1-2.2 0.1zm-15.6 0.8q0.1 0 0.2 0 0.2 0 0.2-0.1-0.2 0-0.4-0.1-0.1-0.1-0.3-0.1 0 0.2 0.1 0.2 0.1 0.1 0.2 0.1zm20.9-48.1q0.1 0.1 0.1 0.3-0.1 0.1-0.1 0.4-0.2-0.1 0-0.3 0.1-0.3 0-0.4zm11.5 7q0.2 0.2 0.2 0.5 0.1 0.4 0 0.7 0 0.3-0.1 0.6 0 0.4 0.1 0.7-0.1 0.2-0.1 0.4 0.1 0.2 0 0.5-0.1-0.7-0.1-1.3 0-0.5 0-1.3-0.1 0.1-0.1 0.3-0.1 0.2-0.2 0.3 0-0.2 0.1-0.7 0.1-0.5 0.2-0.7zm-11 19.7q0.2 0.2 0.2 0.5 0 0.4 0 0.6-0.1-0.2-0.1-0.6 0.1-0.3-0.1-0.5zm-24.6 19.8q-0.1 0.2-0.2 0.2 0 0.1-0.3 0.1 0-0.2 0.2-0.1 0.2 0 0.3-0.2zm42 1.6q0-0.1 0.1-0.1 0.2 0 0.3 0 0.2 0 0.1 0.1 0 0-0.4-0.1-0.1 0-0.1 0.1z"/>
</svg>