<svg version="1.2" xmlns="http://www.w3.org/2000/svg" viewBox="0 0 600 260" width="600" height="260">
	<title>Nytt projekt</title>
	<style>
		.s0 { fill: #ffffff;stroke: #000000;stroke-miterlimit:10;stroke-width: 3 } 
	</style>
	<path id="VÅFFEL" class="s0" aria-label="VÅFFEL"  d="m114.1 33.7q8.8 4.3 8.8 9.5 0 2.5-2.2 7.3l-41.4 83.9q-1.7 3.3-5.1 5.5-3.3 1.9-6.9 1.9h-1.5q-3.8 0-7.2-1.9-3.3-2.2-5-5.5l-41.4-84q-2.2-4.8-2.2-7.2 0-5.2 8.8-9.6 5-2.5 8.4-2.5 1.8 0 3.2 0.6 1.3 0.6 2.4 2.1 1.2 1.5 1.8 2.5 0.6 1.1 1.8 3.3 0.1 0.3 4.8 10.7 4.6 10.2 9.9 21.8 5.4 11.5 10 21.8 4.8 10.2 5.4 11.4l30-65.7q1.2-2.8 2.1-4.3 1.1-1.7 2.9-2.9 1.8-1.3 4.2-1.3 3.4 0 8.4 2.5zm45.7-29.5q7.8 0 13.7 5.4 5.8 5.4 5.8 13.9 0 9.7-7.6 15.5l40.9 84.6q2.6 5.1 2.6 7.7 0 5.4-8.7 9.7-5.1 2.5-8.6 2.5-2.4 0-4.3-1.3-1.8-1.4-2.7-2.9-0.8-1.5-2.3-4.5l-7.8-16.1h-41.5l-7.8 16.1q-1.5 3-2.4 4.4-0.8 1.3-2.7 2.8-1.8 1.4-4.2 1.4-3.5 0-8.6-2.6-8.7-4.1-8.7-9.5 0-2.6 2.6-7.7 0 0.2 40.9-84.6-7.8-5.7-7.8-15.3 0-8.5 5.9-13.9 6-5.6 13.3-5.6zm-6 26.3q3 2.2 6.2 2.2 3.1 0 6.1-2.2 3-2.5 3-7.1 0-4.5-3-6.7-2.8-2.3-6.3-2.3-3.1 0-6.1 2.4-2.9 2.2-2.9 6.7 0 4.7 3 7zm16.2 65.9l-10-20.5-9.9 20.5zm67-64.3h59.1q3.5 0 5.1 0.3 1.8 0.1 3.9 1.3 2.3 1.2 3.2 4.1 0.9 2.8 0.9 7.6 0 4.8-0.9 7.7-0.9 2.8-3.2 4-2.2 1.1-4 1.4-1.7 0.1-5.3 0.1h-45.9v15.2h29.6q3.6 0 5.2 0.3 1.8 0.1 3.9 1.3 2.3 1.2 3.2 4.2 0.9 2.9 0.9 7.7 0 3.9-0.8 6.4-0.7 2.6-1.8 3.9-1 1.4-3.1 2.1-2 0.6-3.5 0.8-1.3 0-4.2 0h-29.4v28.3q0 3.7-0.3 5.3-0.1 1.6-1.3 3.9-1.2 2.2-4.1 3.1-2.8 0.9-7.6 0.9-3.9 0-6.5-0.7-2.5-0.8-3.9-1.8-1.3-1-2.1-3-0.6-2.1-0.7-3.5 0-1.5 0-4.3v-83.4q0-7.6 2.8-10.4 2.9-2.8 10.8-2.8zm95.6 0h59.1q3.4 0 5.1 0.3 1.8 0.1 3.9 1.3 2.2 1.2 3.1 4.1 0.9 2.9 0.9 7.6 0 4.8-0.9 7.7-0.9 2.8-3.1 4.1-2.3 1-4.1 1.3-1.6 0.2-5.2 0.2h-45.9v15.1h29.5q3.6 0 5.3 0.3 1.8 0.1 3.9 1.3 2.2 1.3 3.1 4.3 0.9 2.8 0.9 7.6 0 3.9-0.7 6.4-0.8 2.6-1.8 4-1.1 1.3-3.2 2-1.9 0.6-3.4 0.8-1.4 0-4.2 0h-29.4v28.3q0 3.7-0.3 5.3-0.2 1.6-1.4 3.9-1.2 2.2-4 3.2-2.9 0.8-7.7 0.8-3.9 0-6.4-0.7-2.6-0.8-3.9-1.8-1.4-1-2.1-3-0.6-2.1-0.8-3.5 0-1.5 0-4.3v-83.4q0-7.6 2.9-10.3 2.8-2.9 10.8-2.9zm108.4 68.3v15.1h46.2q3.5 0 5.1 0.3 1.8 0.2 4.1 1.4 2.2 1.1 3.1 4 0.9 2.9 0.9 7.6 0 4-0.7 6.5-0.8 2.6-1.8 3.9-1.1 1.3-3.2 2.1-1.9 0.6-3.4 0.7-1.4 0-4.2 0h-59.4q-3.9 0-6.5-0.7-2.5-0.8-3.9-1.8-1.3-1-2.1-3-0.6-2.1-0.7-3.5 0-1.5 0-4.3v-83.4q0-7.6 2.8-10.3 2.9-2.9 10.8-2.9h59.1q3.5 0 5.1 0.3 1.8 0.2 4.1 1.4 2.2 1.2 3.1 4 0.9 2.9 0.9 7.7 0 3.9-0.7 6.4-0.8 2.6-1.8 3.9-1.1 1.4-3.2 2.1-1.9 0.6-3.4 0.8-1.4 0-4.2 0h-46.1v15.1h29.7q3.5 0 5.1 0.3 1.8 0.2 4.1 1.4 2.2 1.2 3.1 4 0.9 2.9 0.9 7.7 0 3.9-0.7 6.4-0.8 2.6-1.8 3.9-1.1 1.4-3.2 2.1-2.1 0.6-3.6 0.8-1.3 0-4.2 0zm95.7-54.9v74.4l40.8-0.1q3 0 4.4 0.4 1.5 0.1 3.3 1 1.8 0.9 2.5 3.3 0.8 2.4 0.8 6.5 0 3.8-0.8 6.3-0.7 2.4-2.7 3.4-1.8 0.9-3.3 1.2-1.5 0.1-4.3 0.1h-54q-3.9 0-6.5-0.7-2.5-0.8-3.9-1.8-1.3-1-2.1-3-0.6-2.1-0.7-3.5 0-1.5 0-4.3v-83.4q0-3.4 0.1-5.1 0.3-1.8 1.5-4 1.2-2.3 4.1-3.2 2.8-0.9 7.6-0.9 3.9 0 6.5 0.8 2.5 0.7 3.9 1.8 1.3 1 1.9 3.1 0.8 2 0.8 3.5 0.1 1.3 0.1 4.2z"/>
	<path id="FABRIKEN" class="s0" aria-label="FABRIKEN"  d="m187.8 214.6v39.6h-6.8v-39.6h-5.8v-6.3h5.8v-55h23.4v6.4h-16.6v48.6h16.9v6.3zm44.2 39.6l-4.9-39.6h-7.2l-4.7 39.6h-6.6l4.6-39.6h-5.1v-6.3h6l6.8-55h5.8l11.6 100.9zm-8.3-72.1l-3.2 26.2h5.8zm35.4 72v0.1h-14.2v-39.6h-6.5v-6.3h6.4v-55h13.8q4.4 0 7.7 2.9 3.4 2.9 3.4 8.1v40.1q0 2.2-0.9 3.9-0.7 1.7-2.1 3 1.5 1.2 2.5 3.1 1 1.7 1 5.4v22.9q0 4.7-3.4 8.1-3.4 3.3-7.7 3.3zm4.6-34.2q0-1.6-0.8-2.6-0.7-1-1.6-1.7-0.6-0.3-1.1-0.6-0.6-0.3-0.9-0.4h-7.7v33.4q0.5 0 1 0 0.5 0 1 0 2 0 3.7 0 1.7 0 1.7 0 1.7 0 2.9-1.2 1.3-1.4 1.7-2.9 0-0.4 0-0.7 0.1-0.2 0.1-0.5zm-0.7-55.5q0-1.8-1-2.9-1-1.3-2.2-1.7-0.3-0.1-0.7-0.1-0.2-0.1-0.5-0.1 0 0-1.2 0-1.2 0-2.9 0-0.8 0-1.5 0-0.8 0-1.5 0 0 2 0 5.3 0 3.2 0 7.3 0 3.9 0 8.4 0 4.4 0 9 0 5 0 9.8 0 4.8 0 8.9h7.6q0.2 0 0.2 0 0.1 0 0.2 0 1.2-0.1 2.2-1.1 1-1.1 1.2-2.3 0.1-0.1 0.1-0.2 0-0.3 0-0.4zm34.1 78.4v-23q0-0.2 0-0.5 0-0.3-0.2-0.7-0.2-1.5-1.3-2.7-1.2-1.2-3.3-1.2h-7.3v39.5q0-0.1-1.5-0.1-1.4 0-3.2 0-0.5 0-1 0-0.5 0-1 0v-39.6h-5.8v-6.1h5.8v-55.1h14.2q4.7 0 8 3.3 3.2 3.1 3.2 7.8v39.9q0 2.1-0.7 3.9-0.6 1.9-1.9 3.3 1.3 1.3 1.9 3.2 0.7 1.9 0.7 5.1v23q0 1.9 1.1 3 1.1 1 2.3 1.4 1.1 0.4 1.9 0.5 1 0 1.4 0 0.2 0 0.2 0 0.1 0 0.1 0v6.8q-0.1-0.1-0.4-0.1-0.1 0-0.4 0-4.8-0.4-8.8-2.3-4-1.9-4-9.3zm0.1-78.4q0-1.9-1.4-3.3-1.3-1.4-3.1-1.4h-7.9v48.7h7.4q2.1 0 3.5-1 1.5-1 1.5-3.1zm17 89.9v-101h6.9v101zm34.4-11.5v-22.9q0-0.3 0-0.5 0-0.4-0.1-0.8-0.2-1.5-1.4-2.6-1.1-1.3-3.3-1.3h-7.3v39.6q0-0.2-1.5-0.2-1.4 0-3.1 0-0.5 0-1 0-0.5 0-1 0v-39.5h-5.8v-6.2h5.8v-55.1h6.5v55.1h7.3q2.2 0 3.5-1 1.6-1 1.6-3v-51.1h6.5v51.1q0 2-0.7 3.9-0.7 1.9-1.9 3.3 1.2 1.2 1.9 3.1 0.7 1.9 0.7 5.2v22.9q0 1.9 1 3 1.2 1 2.4 1.4 1 0.4 1.9 0.5 1 0 1.4 0 0.1 0 0.1 0 0.1 0 0.1 0v6.8q-0.1-0.1-0.3-0.1-0.2 0-0.4 0-4.8-0.4-8.8-2.3-4.1-1.9-4.1-9.3zm22.2 11.5v-39.6h-6.2v-6.3h6.1v-55.1h23.7v6.5h-16.8v48.6h17.3v6.3h-17.3v33.4h17.3v6.2zm47.4 0l-12.3-62.5v62.5h-6.9v-101h6.4l12.6 64.8v-64.8h6.8v100.8z"/>
</svg>